<svg width="133" height="348" viewBox="0 0 133 348" fill="none" xmlns="http://www.w3.org/2000/svg">
<g opacity="0.4">
<circle opacity="0.4" cx="2.09278" cy="165.628" r="2.09302" transform="rotate(-90 2.09278 165.628)" fill="#262B35"/>
<circle opacity="0.4" cx="20.2322" cy="165.628" r="2.09302" transform="rotate(-90 20.2322 165.628)" fill="#262B35"/>
<circle opacity="0.4" cx="38.3718" cy="165.628" r="2.09302" transform="rotate(-90 38.3718 165.628)" fill="#262B35"/>
<circle opacity="0.4" cx="56.5115" cy="165.628" r="2.09302" transform="rotate(-90 56.5115 165.628)" fill="#262B35"/>
<circle opacity="0.4" cx="74.6509" cy="165.628" r="2.09302" transform="rotate(-90 74.6509 165.628)" fill="#262B35"/>
<circle opacity="0.4" cx="92.7905" cy="165.628" r="2.09302" transform="rotate(-90 92.7905 165.628)" fill="#262B35"/>
<circle opacity="0.4" cx="110.93" cy="165.628" r="2.09302" transform="rotate(-90 110.93 165.628)" fill="#262B35"/>
<circle opacity="0.4" cx="129.07" cy="165.628" r="2.09302" transform="rotate(-90 129.07 165.628)" fill="#262B35"/>
<circle opacity="0.4" cx="2.09278" cy="147.489" r="2.09302" transform="rotate(-90 2.09278 147.489)" fill="#262B35"/>
<circle opacity="0.4" cx="20.2322" cy="147.489" r="2.09302" transform="rotate(-90 20.2322 147.489)" fill="#262B35"/>
<circle opacity="0.4" cx="38.3718" cy="147.489" r="2.09302" transform="rotate(-90 38.3718 147.489)" fill="#262B35"/>
<circle opacity="0.4" cx="56.5115" cy="147.489" r="2.09302" transform="rotate(-90 56.5115 147.489)" fill="#262B35"/>
<circle opacity="0.4" cx="74.6509" cy="147.489" r="2.09302" transform="rotate(-90 74.6509 147.489)" fill="#262B35"/>
<circle opacity="0.4" cx="92.7905" cy="147.489" r="2.09302" transform="rotate(-90 92.7905 147.489)" fill="#262B35"/>
<circle opacity="0.4" cx="110.93" cy="147.489" r="2.09302" transform="rotate(-90 110.93 147.489)" fill="#262B35"/>
<circle opacity="0.4" cx="129.07" cy="147.489" r="2.09302" transform="rotate(-90 129.07 147.489)" fill="#262B35"/>
<circle opacity="0.4" cx="2.09278" cy="129.349" r="2.09302" transform="rotate(-90 2.09278 129.349)" fill="#262B35"/>
<circle opacity="0.4" cx="20.2322" cy="129.349" r="2.09302" transform="rotate(-90 20.2322 129.349)" fill="#262B35"/>
<circle opacity="0.4" cx="38.3718" cy="129.349" r="2.09302" transform="rotate(-90 38.3718 129.349)" fill="#262B35"/>
<circle opacity="0.4" cx="56.5115" cy="129.349" r="2.09302" transform="rotate(-90 56.5115 129.349)" fill="#262B35"/>
<circle opacity="0.4" cx="74.6509" cy="129.349" r="2.09302" transform="rotate(-90 74.6509 129.349)" fill="#262B35"/>
<circle opacity="0.4" cx="92.7905" cy="129.349" r="2.09302" transform="rotate(-90 92.7905 129.349)" fill="#262B35"/>
<circle opacity="0.4" cx="110.93" cy="129.349" r="2.09302" transform="rotate(-90 110.93 129.349)" fill="#262B35"/>
<circle opacity="0.4" cx="129.07" cy="129.349" r="2.09302" transform="rotate(-90 129.07 129.349)" fill="#262B35"/>
<circle opacity="0.4" cx="2.09278" cy="111.209" r="2.09302" transform="rotate(-90 2.09278 111.209)" fill="#262B35"/>
<circle opacity="0.4" cx="20.2322" cy="111.209" r="2.09302" transform="rotate(-90 20.2322 111.209)" fill="#262B35"/>
<circle opacity="0.4" cx="38.3718" cy="111.209" r="2.09302" transform="rotate(-90 38.3718 111.209)" fill="#262B35"/>
<circle opacity="0.4" cx="56.5115" cy="111.209" r="2.09302" transform="rotate(-90 56.5115 111.209)" fill="#262B35"/>
<circle opacity="0.4" cx="74.6509" cy="111.209" r="2.09302" transform="rotate(-90 74.6509 111.209)" fill="#262B35"/>
<circle opacity="0.4" cx="92.7905" cy="111.209" r="2.09302" transform="rotate(-90 92.7905 111.209)" fill="#262B35"/>
<circle opacity="0.4" cx="110.93" cy="111.209" r="2.09302" transform="rotate(-90 110.93 111.209)" fill="#262B35"/>
<circle opacity="0.4" cx="129.07" cy="111.209" r="2.09302" transform="rotate(-90 129.07 111.209)" fill="#262B35"/>
<circle opacity="0.4" cx="2.09278" cy="93.0701" r="2.09302" transform="rotate(-90 2.09278 93.0701)" fill="#262B35"/>
<circle opacity="0.4" cx="20.2322" cy="93.0701" r="2.09302" transform="rotate(-90 20.2322 93.0701)" fill="#262B35"/>
<circle opacity="0.4" cx="38.3718" cy="93.0701" r="2.09302" transform="rotate(-90 38.3718 93.0701)" fill="#262B35"/>
<circle opacity="0.4" cx="56.5115" cy="93.0701" r="2.09302" transform="rotate(-90 56.5115 93.0701)" fill="#262B35"/>
<circle opacity="0.4" cx="74.6509" cy="93.0701" r="2.09302" transform="rotate(-90 74.6509 93.0701)" fill="#262B35"/>
<circle opacity="0.4" cx="92.7905" cy="93.0701" r="2.09302" transform="rotate(-90 92.7905 93.0701)" fill="#262B35"/>
<circle opacity="0.4" cx="110.93" cy="93.0701" r="2.09302" transform="rotate(-90 110.93 93.0701)" fill="#262B35"/>
<circle opacity="0.4" cx="129.07" cy="93.0701" r="2.09302" transform="rotate(-90 129.07 93.0701)" fill="#262B35"/>
<circle opacity="0.4" cx="2.09278" cy="74.9304" r="2.09302" transform="rotate(-90 2.09278 74.9304)" fill="#262B35"/>
<circle opacity="0.4" cx="20.2322" cy="74.9304" r="2.09302" transform="rotate(-90 20.2322 74.9304)" fill="#262B35"/>
<circle opacity="0.4" cx="38.3718" cy="74.9304" r="2.09302" transform="rotate(-90 38.3718 74.9304)" fill="#262B35"/>
<circle opacity="0.4" cx="56.5115" cy="74.9304" r="2.09302" transform="rotate(-90 56.5115 74.9304)" fill="#262B35"/>
<circle opacity="0.4" cx="74.6509" cy="74.9304" r="2.09302" transform="rotate(-90 74.6509 74.9304)" fill="#262B35"/>
<circle opacity="0.4" cx="92.7905" cy="74.9304" r="2.09302" transform="rotate(-90 92.7905 74.9304)" fill="#262B35"/>
<circle opacity="0.4" cx="110.93" cy="74.9304" r="2.09302" transform="rotate(-90 110.93 74.9304)" fill="#262B35"/>
<circle opacity="0.4" cx="129.07" cy="74.9304" r="2.09302" transform="rotate(-90 129.07 74.9304)" fill="#262B35"/>
<circle opacity="0.4" cx="2.09278" cy="56.791" r="2.09302" transform="rotate(-90 2.09278 56.791)" fill="#262B35"/>
<circle opacity="0.4" cx="20.2322" cy="56.791" r="2.09302" transform="rotate(-90 20.2322 56.791)" fill="#262B35"/>
<circle opacity="0.4" cx="38.3718" cy="56.791" r="2.09302" transform="rotate(-90 38.3718 56.791)" fill="#262B35"/>
<circle opacity="0.4" cx="56.5115" cy="56.791" r="2.09302" transform="rotate(-90 56.5115 56.791)" fill="#262B35"/>
<circle opacity="0.4" cx="74.6509" cy="56.791" r="2.09302" transform="rotate(-90 74.6509 56.791)" fill="#262B35"/>
<circle opacity="0.4" cx="92.7905" cy="56.791" r="2.09302" transform="rotate(-90 92.7905 56.791)" fill="#262B35"/>
<circle opacity="0.4" cx="110.93" cy="56.791" r="2.09302" transform="rotate(-90 110.93 56.791)" fill="#262B35"/>
<circle opacity="0.4" cx="129.07" cy="56.791" r="2.09302" transform="rotate(-90 129.07 56.791)" fill="#262B35"/>
<circle opacity="0.4" cx="2.09278" cy="38.6516" r="2.09302" transform="rotate(-90 2.09278 38.6516)" fill="#262B35"/>
<circle opacity="0.4" cx="20.2322" cy="38.6516" r="2.09302" transform="rotate(-90 20.2322 38.6516)" fill="#262B35"/>
<circle opacity="0.4" cx="38.3718" cy="38.6516" r="2.09302" transform="rotate(-90 38.3718 38.6516)" fill="#262B35"/>
<circle opacity="0.4" cx="56.5115" cy="38.6516" r="2.09302" transform="rotate(-90 56.5115 38.6516)" fill="#262B35"/>
<circle opacity="0.4" cx="74.6509" cy="38.6516" r="2.09302" transform="rotate(-90 74.6509 38.6516)" fill="#262B35"/>
<circle opacity="0.4" cx="92.7905" cy="38.6516" r="2.09302" transform="rotate(-90 92.7905 38.6516)" fill="#262B35"/>
<circle opacity="0.4" cx="110.93" cy="38.6516" r="2.09302" transform="rotate(-90 110.93 38.6516)" fill="#262B35"/>
<circle opacity="0.4" cx="129.07" cy="38.6516" r="2.09302" transform="rotate(-90 129.07 38.6516)" fill="#262B35"/>
<circle opacity="0.4" cx="2.09278" cy="20.5117" r="2.09302" transform="rotate(-90 2.09278 20.5117)" fill="#262B35"/>
<circle opacity="0.4" cx="20.2322" cy="20.5117" r="2.09302" transform="rotate(-90 20.2322 20.5117)" fill="#262B35"/>
<circle opacity="0.4" cx="38.3718" cy="20.5117" r="2.09302" transform="rotate(-90 38.3718 20.5117)" fill="#262B35"/>
<circle opacity="0.4" cx="56.5115" cy="20.5117" r="2.09302" transform="rotate(-90 56.5115 20.5117)" fill="#262B35"/>
<circle opacity="0.4" cx="74.6509" cy="20.5117" r="2.09302" transform="rotate(-90 74.6509 20.5117)" fill="#262B35"/>
<circle opacity="0.4" cx="92.7905" cy="20.5117" r="2.09302" transform="rotate(-90 92.7905 20.5117)" fill="#262B35"/>
<circle opacity="0.4" cx="110.93" cy="20.5117" r="2.09302" transform="rotate(-90 110.93 20.5117)" fill="#262B35"/>
<circle opacity="0.4" cx="129.07" cy="20.5117" r="2.09302" transform="rotate(-90 129.07 20.5117)" fill="#262B35"/>
<circle opacity="0.4" cx="2.09278" cy="2.37231" r="2.09302" transform="rotate(-90 2.09278 2.37231)" fill="#262B35"/>
<circle opacity="0.4" cx="20.2322" cy="2.37231" r="2.09302" transform="rotate(-90 20.2322 2.37231)" fill="#262B35"/>
<circle opacity="0.4" cx="38.3718" cy="2.37231" r="2.09302" transform="rotate(-90 38.3718 2.37231)" fill="#262B35"/>
<circle opacity="0.4" cx="56.5115" cy="2.37231" r="2.09302" transform="rotate(-90 56.5115 2.37231)" fill="#262B35"/>
<circle opacity="0.4" cx="74.6509" cy="2.37231" r="2.09302" transform="rotate(-90 74.6509 2.37231)" fill="#262B35"/>
<circle opacity="0.4" cx="92.7905" cy="2.37231" r="2.09302" transform="rotate(-90 92.7905 2.37231)" fill="#262B35"/>
<circle opacity="0.4" cx="110.93" cy="2.37231" r="2.09302" transform="rotate(-90 110.93 2.37231)" fill="#262B35"/>
<circle opacity="0.4" cx="129.07" cy="2.37231" r="2.09302" transform="rotate(-90 129.07 2.37231)" fill="#262B35"/>
</g>
<g opacity="0.4">
<circle opacity="0.4" cx="2.09276" cy="345.628" r="2.093" transform="rotate(-90 2.09276 345.628)" fill="#262B35"/>
<circle opacity="0.4" cx="20.2319" cy="345.628" r="2.093" transform="rotate(-90 20.2319 345.628)" fill="#262B35"/>
<circle opacity="0.4" cx="38.3718" cy="345.628" r="2.093" transform="rotate(-90 38.3718 345.628)" fill="#262B35"/>
<circle opacity="0.4" cx="56.5105" cy="345.628" r="2.093" transform="rotate(-90 56.5105 345.628)" fill="#262B35"/>
<circle opacity="0.4" cx="74.6501" cy="345.628" r="2.093" transform="rotate(-90 74.6501 345.628)" fill="#262B35"/>
<circle opacity="0.4" cx="92.7893" cy="345.628" r="2.093" transform="rotate(-90 92.7893 345.628)" fill="#262B35"/>
<circle opacity="0.4" cx="110.929" cy="345.628" r="2.093" transform="rotate(-90 110.929 345.628)" fill="#262B35"/>
<circle opacity="0.4" cx="129.068" cy="345.628" r="2.093" transform="rotate(-90 129.068 345.628)" fill="#262B35"/>
<circle opacity="0.4" cx="2.09276" cy="327.489" r="2.093" transform="rotate(-90 2.09276 327.489)" fill="#262B35"/>
<circle opacity="0.4" cx="20.2319" cy="327.489" r="2.093" transform="rotate(-90 20.2319 327.489)" fill="#262B35"/>
<circle opacity="0.4" cx="38.3718" cy="327.489" r="2.093" transform="rotate(-90 38.3718 327.489)" fill="#262B35"/>
<circle opacity="0.4" cx="56.5105" cy="327.489" r="2.093" transform="rotate(-90 56.5105 327.489)" fill="#262B35"/>
<circle opacity="0.4" cx="74.6501" cy="327.489" r="2.093" transform="rotate(-90 74.6501 327.489)" fill="#262B35"/>
<circle opacity="0.4" cx="92.7893" cy="327.489" r="2.093" transform="rotate(-90 92.7893 327.489)" fill="#262B35"/>
<circle opacity="0.4" cx="110.929" cy="327.489" r="2.093" transform="rotate(-90 110.929 327.489)" fill="#262B35"/>
<circle opacity="0.4" cx="129.068" cy="327.489" r="2.093" transform="rotate(-90 129.068 327.489)" fill="#262B35"/>
<circle opacity="0.4" cx="2.09276" cy="309.349" r="2.093" transform="rotate(-90 2.09276 309.349)" fill="#262B35"/>
<circle opacity="0.4" cx="20.2319" cy="309.349" r="2.093" transform="rotate(-90 20.2319 309.349)" fill="#262B35"/>
<circle opacity="0.4" cx="38.3718" cy="309.349" r="2.093" transform="rotate(-90 38.3718 309.349)" fill="#262B35"/>
<circle opacity="0.4" cx="56.5105" cy="309.349" r="2.093" transform="rotate(-90 56.5105 309.349)" fill="#262B35"/>
<circle opacity="0.4" cx="74.6501" cy="309.349" r="2.093" transform="rotate(-90 74.6501 309.349)" fill="#262B35"/>
<circle opacity="0.4" cx="92.7893" cy="309.349" r="2.093" transform="rotate(-90 92.7893 309.349)" fill="#262B35"/>
<circle opacity="0.4" cx="110.929" cy="309.349" r="2.093" transform="rotate(-90 110.929 309.349)" fill="#262B35"/>
<circle opacity="0.4" cx="129.068" cy="309.349" r="2.093" transform="rotate(-90 129.068 309.349)" fill="#262B35"/>
<circle opacity="0.4" cx="2.09276" cy="291.21" r="2.093" transform="rotate(-90 2.09276 291.21)" fill="#262B35"/>
<circle opacity="0.4" cx="20.2319" cy="291.21" r="2.093" transform="rotate(-90 20.2319 291.21)" fill="#262B35"/>
<circle opacity="0.4" cx="38.3718" cy="291.21" r="2.093" transform="rotate(-90 38.3718 291.21)" fill="#262B35"/>
<circle opacity="0.4" cx="56.5105" cy="291.21" r="2.093" transform="rotate(-90 56.5105 291.21)" fill="#262B35"/>
<circle opacity="0.4" cx="74.6501" cy="291.21" r="2.093" transform="rotate(-90 74.6501 291.21)" fill="#262B35"/>
<circle opacity="0.4" cx="92.7893" cy="291.21" r="2.093" transform="rotate(-90 92.7893 291.21)" fill="#262B35"/>
<circle opacity="0.4" cx="110.929" cy="291.21" r="2.093" transform="rotate(-90 110.929 291.21)" fill="#262B35"/>
<circle opacity="0.4" cx="129.068" cy="291.21" r="2.093" transform="rotate(-90 129.068 291.21)" fill="#262B35"/>
<circle opacity="0.4" cx="2.09276" cy="273.071" r="2.093" transform="rotate(-90 2.09276 273.071)" fill="#262B35"/>
<circle opacity="0.4" cx="20.2319" cy="273.071" r="2.093" transform="rotate(-90 20.2319 273.071)" fill="#262B35"/>
<circle opacity="0.4" cx="38.3718" cy="273.071" r="2.093" transform="rotate(-90 38.3718 273.071)" fill="#262B35"/>
<circle opacity="0.4" cx="56.5105" cy="273.071" r="2.093" transform="rotate(-90 56.5105 273.071)" fill="#262B35"/>
<circle opacity="0.4" cx="74.6501" cy="273.071" r="2.093" transform="rotate(-90 74.6501 273.071)" fill="#262B35"/>
<circle opacity="0.4" cx="92.7893" cy="273.071" r="2.093" transform="rotate(-90 92.7893 273.071)" fill="#262B35"/>
<circle opacity="0.4" cx="110.929" cy="273.071" r="2.093" transform="rotate(-90 110.929 273.071)" fill="#262B35"/>
<circle opacity="0.4" cx="129.068" cy="273.071" r="2.093" transform="rotate(-90 129.068 273.071)" fill="#262B35"/>
<circle opacity="0.4" cx="2.09276" cy="254.931" r="2.093" transform="rotate(-90 2.09276 254.931)" fill="#262B35"/>
<circle opacity="0.4" cx="20.2319" cy="254.931" r="2.093" transform="rotate(-90 20.2319 254.931)" fill="#262B35"/>
<circle opacity="0.4" cx="38.3718" cy="254.931" r="2.093" transform="rotate(-90 38.3718 254.931)" fill="#262B35"/>
<circle opacity="0.4" cx="56.5105" cy="254.931" r="2.093" transform="rotate(-90 56.5105 254.931)" fill="#262B35"/>
<circle opacity="0.4" cx="74.6501" cy="254.931" r="2.093" transform="rotate(-90 74.6501 254.931)" fill="#262B35"/>
<circle opacity="0.4" cx="92.7893" cy="254.931" r="2.093" transform="rotate(-90 92.7893 254.931)" fill="#262B35"/>
<circle opacity="0.4" cx="110.929" cy="254.931" r="2.093" transform="rotate(-90 110.929 254.931)" fill="#262B35"/>
<circle opacity="0.4" cx="129.068" cy="254.931" r="2.093" transform="rotate(-90 129.068 254.931)" fill="#262B35"/>
<circle opacity="0.4" cx="2.09276" cy="236.792" r="2.093" transform="rotate(-90 2.09276 236.792)" fill="#262B35"/>
<circle opacity="0.4" cx="20.2319" cy="236.792" r="2.093" transform="rotate(-90 20.2319 236.792)" fill="#262B35"/>
<circle opacity="0.4" cx="38.3718" cy="236.792" r="2.093" transform="rotate(-90 38.3718 236.792)" fill="#262B35"/>
<circle opacity="0.4" cx="56.5105" cy="236.792" r="2.093" transform="rotate(-90 56.5105 236.792)" fill="#262B35"/>
<circle opacity="0.4" cx="74.6501" cy="236.792" r="2.093" transform="rotate(-90 74.6501 236.792)" fill="#262B35"/>
<circle opacity="0.4" cx="92.7893" cy="236.792" r="2.093" transform="rotate(-90 92.7893 236.792)" fill="#262B35"/>
<circle opacity="0.4" cx="110.929" cy="236.792" r="2.093" transform="rotate(-90 110.929 236.792)" fill="#262B35"/>
<circle opacity="0.4" cx="129.068" cy="236.792" r="2.093" transform="rotate(-90 129.068 236.792)" fill="#262B35"/>
<circle opacity="0.4" cx="2.09276" cy="218.653" r="2.093" transform="rotate(-90 2.09276 218.653)" fill="#262B35"/>
<circle opacity="0.4" cx="20.2319" cy="218.653" r="2.093" transform="rotate(-90 20.2319 218.653)" fill="#262B35"/>
<circle opacity="0.4" cx="38.3718" cy="218.653" r="2.093" transform="rotate(-90 38.3718 218.653)" fill="#262B35"/>
<circle opacity="0.4" cx="56.5105" cy="218.653" r="2.093" transform="rotate(-90 56.5105 218.653)" fill="#262B35"/>
<circle opacity="0.4" cx="74.6501" cy="218.653" r="2.093" transform="rotate(-90 74.6501 218.653)" fill="#262B35"/>
<circle opacity="0.4" cx="92.7893" cy="218.653" r="2.093" transform="rotate(-90 92.7893 218.653)" fill="#262B35"/>
<circle opacity="0.4" cx="110.929" cy="218.653" r="2.093" transform="rotate(-90 110.929 218.653)" fill="#262B35"/>
<circle opacity="0.4" cx="129.068" cy="218.653" r="2.093" transform="rotate(-90 129.068 218.653)" fill="#262B35"/>
<circle opacity="0.4" cx="2.09276" cy="200.513" r="2.093" transform="rotate(-90 2.09276 200.513)" fill="#262B35"/>
<circle opacity="0.4" cx="20.2319" cy="200.513" r="2.093" transform="rotate(-90 20.2319 200.513)" fill="#262B35"/>
<circle opacity="0.4" cx="38.3718" cy="200.513" r="2.093" transform="rotate(-90 38.3718 200.513)" fill="#262B35"/>
<circle opacity="0.4" cx="56.5105" cy="200.513" r="2.093" transform="rotate(-90 56.5105 200.513)" fill="#262B35"/>
<circle opacity="0.4" cx="74.6501" cy="200.513" r="2.093" transform="rotate(-90 74.6501 200.513)" fill="#262B35"/>
<circle opacity="0.4" cx="92.7893" cy="200.513" r="2.093" transform="rotate(-90 92.7893 200.513)" fill="#262B35"/>
<circle opacity="0.4" cx="110.929" cy="200.513" r="2.093" transform="rotate(-90 110.929 200.513)" fill="#262B35"/>
<circle opacity="0.4" cx="129.068" cy="200.513" r="2.093" transform="rotate(-90 129.068 200.513)" fill="#262B35"/>
<circle opacity="0.4" cx="2.09276" cy="182.374" r="2.093" transform="rotate(-90 2.09276 182.374)" fill="#262B35"/>
<circle opacity="0.4" cx="20.2319" cy="182.374" r="2.093" transform="rotate(-90 20.2319 182.374)" fill="#262B35"/>
<circle opacity="0.4" cx="38.3718" cy="182.374" r="2.093" transform="rotate(-90 38.3718 182.374)" fill="#262B35"/>
<circle opacity="0.4" cx="56.5105" cy="182.374" r="2.093" transform="rotate(-90 56.5105 182.374)" fill="#262B35"/>
<circle opacity="0.4" cx="74.6501" cy="182.374" r="2.093" transform="rotate(-90 74.6501 182.374)" fill="#262B35"/>
<circle opacity="0.4" cx="92.7893" cy="182.374" r="2.093" transform="rotate(-90 92.7893 182.374)" fill="#262B35"/>
<circle opacity="0.4" cx="110.929" cy="182.374" r="2.093" transform="rotate(-90 110.929 182.374)" fill="#262B35"/>
<circle opacity="0.4" cx="129.068" cy="182.374" r="2.093" transform="rotate(-90 129.068 182.374)" fill="#262B35"/>
</g>
</svg>
