<svg width="240" height="168" viewBox="0 0 240 168" fill="none" xmlns="http://www.w3.org/2000/svg">
<g opacity="0.4">
<circle cx="2.09302" cy="93.3489" r="2.09302" transform="rotate(-90 2.09302 93.3489)" fill="red"/>
<circle cx="20.2327" cy="93.3489" r="2.09302" transform="rotate(-90 20.2327 93.3489)" fill="red"/>
<circle cx="38.3721" cy="93.3489" r="2.09302" transform="rotate(-90 38.3721 93.3489)" fill="red"/>
<circle cx="56.5117" cy="93.3489" r="2.09302" transform="rotate(-90 56.5117 93.3489)" fill="red"/>
<circle cx="74.6511" cy="93.3489" r="2.09302" transform="rotate(-90 74.6511 93.3489)" fill="red"/>
<circle cx="92.7908" cy="93.3489" r="2.09302" transform="rotate(-90 92.7908 93.3489)" fill="red"/>
<circle cx="110.93" cy="93.3489" r="2.09302" transform="rotate(-90 110.93 93.3489)" fill="red"/>
<circle cx="129.07" cy="93.3489" r="2.09302" transform="rotate(-90 129.07 93.3489)" fill="red"/>
<circle cx="147.209" cy="93.3489" r="2.09302" transform="rotate(-90 147.209 93.3489)" fill="red"/>
<circle cx="165.349" cy="93.3489" r="2.09302" transform="rotate(-90 165.349 93.3489)" fill="red"/>
<circle cx="183.488" cy="93.3489" r="2.09302" transform="rotate(-90 183.488 93.3489)" fill="red"/>
<circle cx="201.628" cy="93.3489" r="2.09302" transform="rotate(-90 201.628 93.3489)" fill="red"/>
<circle cx="219.767" cy="93.3489" r="2.09302" transform="rotate(-90 219.767 93.3489)" fill="red"/>
<circle cx="237.907" cy="93.3489" r="2.09302" transform="rotate(-90 237.907 93.3489)" fill="red"/>
<circle cx="2.09302" cy="75.2092" r="2.09302" transform="rotate(-90 2.09302 75.2092)" fill="red"/>
<circle cx="20.2327" cy="75.2092" r="2.09302" transform="rotate(-90 20.2327 75.2092)" fill="red"/>
<circle cx="38.3721" cy="75.2092" r="2.09302" transform="rotate(-90 38.3721 75.2092)" fill="red"/>
<circle cx="56.5117" cy="75.2092" r="2.09302" transform="rotate(-90 56.5117 75.2092)" fill="red"/>
<circle cx="74.6511" cy="75.2092" r="2.09302" transform="rotate(-90 74.6511 75.2092)" fill="red"/>
<circle cx="92.7908" cy="75.2092" r="2.09302" transform="rotate(-90 92.7908 75.2092)" fill="red"/>
<circle cx="110.93" cy="75.2092" r="2.09302" transform="rotate(-90 110.93 75.2092)" fill="red"/>
<circle cx="129.07" cy="75.2092" r="2.09302" transform="rotate(-90 129.07 75.2092)" fill="red"/>
<circle cx="147.209" cy="75.2092" r="2.09302" transform="rotate(-90 147.209 75.2092)" fill="red"/>
<circle cx="165.349" cy="75.2092" r="2.09302" transform="rotate(-90 165.349 75.2092)" fill="red"/>
<circle cx="183.488" cy="75.2092" r="2.09302" transform="rotate(-90 183.488 75.2092)" fill="red"/>
<circle cx="201.628" cy="75.2092" r="2.09302" transform="rotate(-90 201.628 75.2092)" fill="red"/>
<circle cx="219.767" cy="75.2092" r="2.09302" transform="rotate(-90 219.767 75.2092)" fill="red"/>
<circle cx="237.907" cy="75.2092" r="2.09302" transform="rotate(-90 237.907 75.2092)" fill="red"/>
<circle cx="2.09302" cy="57.0698" r="2.09302" transform="rotate(-90 2.09302 57.0698)" fill="red"/>
<circle cx="20.2327" cy="57.0698" r="2.09302" transform="rotate(-90 20.2327 57.0698)" fill="red"/>
<circle cx="38.3721" cy="57.0698" r="2.09302" transform="rotate(-90 38.3721 57.0698)" fill="red"/>
<circle cx="56.5117" cy="57.0698" r="2.09302" transform="rotate(-90 56.5117 57.0698)" fill="red"/>
<circle cx="74.6511" cy="57.0698" r="2.09302" transform="rotate(-90 74.6511 57.0698)" fill="red"/>
<circle cx="92.7908" cy="57.0698" r="2.09302" transform="rotate(-90 92.7908 57.0698)" fill="red"/>
<circle cx="110.93" cy="57.0698" r="2.09302" transform="rotate(-90 110.93 57.0698)" fill="red"/>
<circle cx="129.07" cy="57.0698" r="2.09302" transform="rotate(-90 129.07 57.0698)" fill="red"/>
<circle cx="147.209" cy="57.0698" r="2.09302" transform="rotate(-90 147.209 57.0698)" fill="red"/>
<circle cx="165.349" cy="57.0698" r="2.09302" transform="rotate(-90 165.349 57.0698)" fill="red"/>
<circle cx="183.488" cy="57.0698" r="2.09302" transform="rotate(-90 183.488 57.0698)" fill="red"/>
<circle cx="201.628" cy="57.0698" r="2.09302" transform="rotate(-90 201.628 57.0698)" fill="red"/>
<circle cx="219.767" cy="57.0698" r="2.09302" transform="rotate(-90 219.767 57.0698)" fill="red"/>
<circle cx="237.907" cy="57.0698" r="2.09302" transform="rotate(-90 237.907 57.0698)" fill="red"/>
<circle cx="2.09302" cy="38.9304" r="2.09302" transform="rotate(-90 2.09302 38.9304)" fill="red"/>
<circle cx="20.2327" cy="38.9304" r="2.09302" transform="rotate(-90 20.2327 38.9304)" fill="red"/>
<circle cx="38.3721" cy="38.9304" r="2.09302" transform="rotate(-90 38.3721 38.9304)" fill="red"/>
<circle cx="56.5117" cy="38.9304" r="2.09302" transform="rotate(-90 56.5117 38.9304)" fill="red"/>
<circle cx="74.6511" cy="38.9304" r="2.09302" transform="rotate(-90 74.6511 38.9304)" fill="red"/>
<circle cx="92.7908" cy="38.9304" r="2.09302" transform="rotate(-90 92.7908 38.9304)" fill="red"/>
<circle cx="110.93" cy="38.9304" r="2.09302" transform="rotate(-90 110.93 38.9304)" fill="red"/>
<circle cx="129.07" cy="38.9304" r="2.09302" transform="rotate(-90 129.07 38.9304)" fill="red"/>
<circle cx="147.209" cy="38.9304" r="2.09302" transform="rotate(-90 147.209 38.9304)" fill="red"/>
<circle cx="165.349" cy="38.9304" r="2.09302" transform="rotate(-90 165.349 38.9304)" fill="red"/>
<circle cx="183.488" cy="38.9304" r="2.09302" transform="rotate(-90 183.488 38.9304)" fill="red"/>
<circle cx="201.628" cy="38.9304" r="2.09302" transform="rotate(-90 201.628 38.9304)" fill="red"/>
<circle cx="219.767" cy="38.9304" r="2.09302" transform="rotate(-90 219.767 38.9304)" fill="red"/>
<circle cx="237.907" cy="38.9304" r="2.09302" transform="rotate(-90 237.907 38.9304)" fill="red"/>
<circle cx="2.09302" cy="20.7905" r="2.09302" transform="rotate(-90 2.09302 20.7905)" fill="red"/>
<circle cx="20.2327" cy="20.7905" r="2.09302" transform="rotate(-90 20.2327 20.7905)" fill="red"/>
<circle cx="38.3721" cy="20.7905" r="2.09302" transform="rotate(-90 38.3721 20.7905)" fill="red"/>
<circle cx="56.5117" cy="20.7905" r="2.09302" transform="rotate(-90 56.5117 20.7905)" fill="red"/>
<circle cx="74.6511" cy="20.7905" r="2.09302" transform="rotate(-90 74.6511 20.7905)" fill="red"/>
<circle cx="92.7908" cy="20.7905" r="2.09302" transform="rotate(-90 92.7908 20.7905)" fill="red"/>
<circle cx="110.93" cy="20.7905" r="2.09302" transform="rotate(-90 110.93 20.7905)" fill="red"/>
<circle cx="129.07" cy="20.7905" r="2.09302" transform="rotate(-90 129.07 20.7905)" fill="red"/>
<circle cx="147.209" cy="20.7905" r="2.09302" transform="rotate(-90 147.209 20.7905)" fill="red"/>
<circle cx="165.349" cy="20.7905" r="2.09302" transform="rotate(-90 165.349 20.7905)" fill="red"/>
<circle cx="183.488" cy="20.7905" r="2.09302" transform="rotate(-90 183.488 20.7905)" fill="red"/>
<circle cx="201.628" cy="20.7905" r="2.09302" transform="rotate(-90 201.628 20.7905)" fill="red"/>
<circle cx="219.767" cy="20.7905" r="2.09302" transform="rotate(-90 219.767 20.7905)" fill="red"/>
<circle cx="237.907" cy="20.7905" r="2.09302" transform="rotate(-90 237.907 20.7905)" fill="red"/>
<circle cx="2.09302" cy="2.65112" r="2.09302" transform="rotate(-90 2.09302 2.65112)" fill="red"/>
<circle cx="20.2327" cy="2.65112" r="2.09302" transform="rotate(-90 20.2327 2.65112)" fill="red"/>
<circle cx="38.3721" cy="2.65112" r="2.09302" transform="rotate(-90 38.3721 2.65112)" fill="red"/>
<circle cx="56.5117" cy="2.65112" r="2.09302" transform="rotate(-90 56.5117 2.65112)" fill="red"/>
<circle cx="74.6511" cy="2.65112" r="2.09302" transform="rotate(-90 74.6511 2.65112)" fill="red"/>
<circle cx="92.7908" cy="2.65112" r="2.09302" transform="rotate(-90 92.7908 2.65112)" fill="red"/>
<circle cx="110.93" cy="2.65112" r="2.09302" transform="rotate(-90 110.93 2.65112)" fill="red"/>
<circle cx="129.07" cy="2.65112" r="2.09302" transform="rotate(-90 129.07 2.65112)" fill="red"/>
<circle cx="147.209" cy="2.65112" r="2.09302" transform="rotate(-90 147.209 2.65112)" fill="red"/>
<circle cx="165.349" cy="2.65112" r="2.09302" transform="rotate(-90 165.349 2.65112)" fill="red"/>
<circle cx="183.488" cy="2.65112" r="2.09302" transform="rotate(-90 183.488 2.65112)" fill="red"/>
<circle cx="201.628" cy="2.65112" r="2.09302" transform="rotate(-90 201.628 2.65112)" fill="red"/>
<circle cx="219.767" cy="2.65112" r="2.09302" transform="rotate(-90 219.767 2.65112)" fill="red"/>
<circle cx="237.907" cy="2.65112" r="2.09302" transform="rotate(-90 237.907 2.65112)" fill="red"/>
</g>
</svg>
