<svg width="167" height="42" viewBox="0 0 167 42" fill="none" xmlns="http://www.w3.org/2000/svg">
<path d="M64.0703 17.6016H67.3125C67.2656 14.75 64.9219 12.7812 61.3594 12.7812C57.8516 12.7812 55.2813 14.7187 55.2969 17.625C55.2891 19.9844 56.9531 21.3359 59.6563 21.9844L61.3984 22.4219C63.1406 22.8437 64.1094 23.3437 64.1172 24.4219C64.1094 25.5937 63 26.3906 61.2812 26.3906C59.5234 26.3906 58.2578 25.5781 58.1484 23.9766H54.875C54.9609 27.4375 57.4375 29.2266 61.3203 29.2266C65.2266 29.2266 67.5234 27.3594 67.5312 24.4297C67.5234 21.7656 65.5156 20.3516 62.7344 19.7266L61.2969 19.3828C59.9062 19.0625 58.7422 18.5469 58.7656 17.3984C58.7656 16.3672 59.6797 15.6094 61.3359 15.6094C62.9531 15.6094 63.9453 16.3437 64.0703 17.6016ZM69.7441 29H73.0723V17H69.7441V29ZM71.416 15.4531C72.4082 15.4531 73.2207 14.6953 73.2207 13.7656C73.2207 12.8438 72.4082 12.0859 71.416 12.0859C70.4316 12.0859 69.6191 12.8438 69.6191 13.7656C69.6191 14.6953 70.4316 15.4531 71.416 15.4531ZM75.7383 33.5H79.0664V27.0781H79.168C79.6289 28.0781 80.6367 29.1953 82.5742 29.1953C85.3086 29.1953 87.4414 27.0312 87.4414 23.0156C87.4414 18.8906 85.2148 16.8438 82.582 16.8438C80.5742 16.8438 79.6133 18.0391 79.168 19.0156H79.0195V17H75.7383V33.5ZM78.9961 23C78.9961 20.8594 79.9023 19.4922 81.5195 19.4922C83.168 19.4922 84.043 20.9219 84.043 23C84.043 25.0937 83.1523 26.5469 81.5195 26.5469C79.918 26.5469 78.9961 25.1406 78.9961 23ZM92.9883 22.0625C92.9961 20.5156 93.9414 19.6094 95.3008 19.6094C96.6523 19.6094 97.4492 20.4766 97.4414 21.9531V29H100.77V21.3594C100.777 18.5469 99.1211 16.8438 96.6211 16.8438C94.8008 16.8438 93.582 17.7031 93.0352 19.1172H92.8945V13H89.6602V29H92.9883V22.0625ZM108.811 29.2344C112.451 29.2344 114.717 26.7422 114.717 23.0469C114.717 19.3281 112.451 16.8438 108.811 16.8438C105.17 16.8438 102.904 19.3281 102.904 23.0469C102.904 26.7422 105.17 29.2344 108.811 29.2344ZM108.826 26.6562C107.146 26.6562 106.287 25.1172 106.287 23.0234C106.287 20.9297 107.146 19.3828 108.826 19.3828C110.475 19.3828 111.334 20.9297 111.334 23.0234C111.334 25.1172 110.475 26.6562 108.826 26.6562ZM116.881 29H120.209V21.7969C120.209 20.4687 121.053 19.5859 122.162 19.5859C123.256 19.5859 123.99 20.3359 123.99 21.5156V29H127.217V21.6719C127.217 20.4297 127.928 19.5859 129.139 19.5859C130.201 19.5859 130.998 20.25 130.998 21.5859V29H134.318V20.9297C134.318 18.3281 132.771 16.8438 130.537 16.8438C128.779 16.8438 127.412 17.7422 126.92 19.1172H126.795C126.412 17.7266 125.186 16.8438 123.537 16.8438C121.92 16.8438 120.693 17.7031 120.193 19.1172H120.053V17H116.881V29ZM142.416 29.2344C145.385 29.2344 147.385 27.7891 147.854 25.5625L144.775 25.3594C144.439 26.2734 143.58 26.75 142.471 26.75C140.807 26.75 139.752 25.6484 139.752 23.8594V23.8516H147.924V22.9375C147.924 18.8594 145.455 16.8438 142.283 16.8438C138.752 16.8438 136.463 19.3516 136.463 23.0547C136.463 26.8594 138.721 29.2344 142.416 29.2344ZM139.752 21.7891C139.822 20.4219 140.861 19.3281 142.338 19.3281C143.783 19.3281 144.783 20.3594 144.791 21.7891H139.752Z" fill="white"/>
<path d="M0 21C-3.63102e-07 25.1534 1.23163 29.2135 3.53914 32.667C5.84665 36.1204 9.1264 38.812 12.9636 40.4015C16.8009 41.9909 21.0233 42.4068 25.0969 41.5965C29.1705 40.7862 32.9123 38.7861 35.8492 35.8492C38.7861 32.9123 40.7862 29.1705 41.5965 25.0969C42.4068 21.0233 41.9909 16.8009 40.4015 12.9636C38.812 9.1264 36.1204 5.84665 32.667 3.53914C29.2135 1.23163 25.1534 3.13574e-07 21 0L21 21L0 21Z" fill="#1ECE7A"/>
<path d="M31.5624 20.9999C31.5624 18.1986 30.4496 15.512 28.4687 13.5312C26.4879 11.5503 23.8013 10.4375 20.9999 10.4375C18.1986 10.4375 15.512 11.5503 13.5312 13.5312C11.5503 15.512 10.4375 18.1986 10.4375 20.9999L20.9999 20.9999H31.5624Z" fill="white"/>
</svg>
