<svg width="42" height="42" viewBox="0 0 42 42" fill="none" xmlns="http://www.w3.org/2000/svg">
<path d="M0 21C-3.63102e-07 25.1534 1.23163 29.2135 3.53914 32.667C5.84665 36.1204 9.1264 38.812 12.9636 40.4015C16.8009 41.9909 21.0233 42.4068 25.0969 41.5965C29.1705 40.7862 32.9123 38.7861 35.8492 35.8492C38.7861 32.9123 40.7862 29.1705 41.5965 25.0969C42.4068 21.0233 41.9909 16.8009 40.4015 12.9636C38.812 9.1264 36.1204 5.84665 32.667 3.53914C29.2135 1.23163 25.1534 3.13574e-07 21 0L21 21L0 21Z" fill="#1ECE7A"/>
<path d="M31.5624 20.9999C31.5624 18.1986 30.4496 15.512 28.4687 13.5312C26.4879 11.5503 23.8013 10.4375 20.9999 10.4375C18.1986 10.4375 15.512 11.5503 13.5312 13.5312C11.5503 15.512 10.4375 18.1986 10.4375 20.9999L20.9999 20.9999H31.5624Z" fill="white"/>
</svg>
