<svg width="148" height="168" viewBox="0 0 148 168" fill="none" xmlns="http://www.w3.org/2000/svg">
<g opacity="0.4">
<circle cx="0.654547" cy="74.6511" r="2.09302" transform="rotate(-90 0.654547 74.6511)" fill="red"/>
<circle cx="18.7941" cy="74.6511" r="2.09302" transform="rotate(-90 18.7941 74.6511)" fill="red"/>
<circle cx="36.9336" cy="74.6511" r="2.09302" transform="rotate(-90 36.9336 74.6511)" fill="red"/>
<circle cx="55.0732" cy="74.6511" r="2.09302" transform="rotate(-90 55.0732 74.6511)" fill="red"/>
<circle cx="73.2128" cy="74.6511" r="2.09302" transform="rotate(-90 73.2128 74.6511)" fill="red"/>
<circle cx="91.3523" cy="74.6511" r="2.09302" transform="rotate(-90 91.3523 74.6511)" fill="red"/>
<circle cx="109.492" cy="74.6511" r="2.09302" transform="rotate(-90 109.492 74.6511)" fill="red"/>
<circle cx="127.631" cy="74.6511" r="2.09302" transform="rotate(-90 127.631 74.6511)" fill="red"/>
<circle cx="145.771" cy="74.6511" r="2.09302" transform="rotate(-90 145.771 74.6511)" fill="red"/>
<circle cx="0.654547" cy="56.5117" r="2.09302" transform="rotate(-90 0.654547 56.5117)" fill="red"/>
<circle cx="18.7941" cy="56.5117" r="2.09302" transform="rotate(-90 18.7941 56.5117)" fill="red"/>
<circle cx="36.9336" cy="56.5117" r="2.09302" transform="rotate(-90 36.9336 56.5117)" fill="red"/>
<circle cx="55.0732" cy="56.5117" r="2.09302" transform="rotate(-90 55.0732 56.5117)" fill="red"/>
<circle cx="73.2128" cy="56.5117" r="2.09302" transform="rotate(-90 73.2128 56.5117)" fill="red"/>
<circle cx="91.3523" cy="56.5117" r="2.09302" transform="rotate(-90 91.3523 56.5117)" fill="red"/>
<circle cx="109.492" cy="56.5117" r="2.09302" transform="rotate(-90 109.492 56.5117)" fill="red"/>
<circle cx="127.631" cy="56.5117" r="2.09302" transform="rotate(-90 127.631 56.5117)" fill="red"/>
<circle cx="145.771" cy="56.5117" r="2.09302" transform="rotate(-90 145.771 56.5117)" fill="red"/>
<circle cx="0.654547" cy="38.3723" r="2.09302" transform="rotate(-90 0.654547 38.3723)" fill="red"/>
<circle cx="18.7941" cy="38.3723" r="2.09302" transform="rotate(-90 18.7941 38.3723)" fill="red"/>
<circle cx="36.9336" cy="38.3723" r="2.09302" transform="rotate(-90 36.9336 38.3723)" fill="red"/>
<circle cx="55.0732" cy="38.3723" r="2.09302" transform="rotate(-90 55.0732 38.3723)" fill="red"/>
<circle cx="73.2128" cy="38.3723" r="2.09302" transform="rotate(-90 73.2128 38.3723)" fill="red"/>
<circle cx="91.3523" cy="38.3723" r="2.09302" transform="rotate(-90 91.3523 38.3723)" fill="red"/>
<circle cx="109.492" cy="38.3723" r="2.09302" transform="rotate(-90 109.492 38.3723)" fill="red"/>
<circle cx="127.631" cy="38.3723" r="2.09302" transform="rotate(-90 127.631 38.3723)" fill="red"/>
<circle cx="145.771" cy="38.3723" r="2.09302" transform="rotate(-90 145.771 38.3723)" fill="red"/>
<circle cx="0.654547" cy="20.2324" r="2.09302" transform="rotate(-90 0.654547 20.2324)" fill="red"/>
<circle cx="18.7941" cy="20.2324" r="2.09302" transform="rotate(-90 18.7941 20.2324)" fill="red"/>
<circle cx="36.9336" cy="20.2324" r="2.09302" transform="rotate(-90 36.9336 20.2324)" fill="red"/>
<circle cx="55.0732" cy="20.2324" r="2.09302" transform="rotate(-90 55.0732 20.2324)" fill="red"/>
<circle cx="73.2128" cy="20.2324" r="2.09302" transform="rotate(-90 73.2128 20.2324)" fill="red"/>
<circle cx="91.3523" cy="20.2324" r="2.09302" transform="rotate(-90 91.3523 20.2324)" fill="red"/>
<circle cx="109.492" cy="20.2324" r="2.09302" transform="rotate(-90 109.492 20.2324)" fill="red"/>
<circle cx="127.631" cy="20.2324" r="2.09302" transform="rotate(-90 127.631 20.2324)" fill="red"/>
<circle cx="145.771" cy="20.2324" r="2.09302" transform="rotate(-90 145.771 20.2324)" fill="red"/>
<circle cx="0.654547" cy="2.09301" r="2.09302" transform="rotate(-90 0.654547 2.09301)" fill="red"/>
<circle cx="18.7941" cy="2.09301" r="2.09302" transform="rotate(-90 18.7941 2.09301)" fill="red"/>
<circle cx="36.9336" cy="2.09301" r="2.09302" transform="rotate(-90 36.9336 2.09301)" fill="red"/>
<circle cx="55.0732" cy="2.09301" r="2.09302" transform="rotate(-90 55.0732 2.09301)" fill="red"/>
<circle cx="73.2128" cy="2.09301" r="2.09302" transform="rotate(-90 73.2128 2.09301)" fill="red"/>
<circle cx="91.3523" cy="2.09301" r="2.09302" transform="rotate(-90 91.3523 2.09301)" fill="red"/>
<circle cx="109.492" cy="2.09301" r="2.09302" transform="rotate(-90 109.492 2.09301)" fill="red"/>
<circle cx="127.631" cy="2.09301" r="2.09302" transform="rotate(-90 127.631 2.09301)" fill="red"/>
<circle cx="145.771" cy="2.09301" r="2.09302" transform="rotate(-90 145.771 2.09301)" fill="red"/>
</g>
</svg>
