<svg width="61" height="60" viewBox="0 0 61 60" fill="none" xmlns="http://www.w3.org/2000/svg">
<circle cx="30.5" cy="30" r="30" fill="white"/>
<path fill-rule="evenodd" clip-rule="evenodd" d="M48.3651 33.7806L48.3693 33.7889L48.3731 33.7963C48.4569 34.0089 48.5 34.2352 48.5 34.4634V47.2194C48.5 47.5509 48.2314 47.8195 47.8999 47.8195H13.1001C12.7686 47.8195 12.5 47.5509 12.5 47.2194V34.4634C12.4995 34.0336 12.6533 33.6178 12.9334 33.2917L15.8843 29.8492C16.2268 29.4501 16.7262 29.2202 17.2521 29.2194H19.6999V22.0195C19.704 18.3761 22.6566 15.4236 26.2999 15.4195H38.6793L39.4091 13.0294C39.5865 12.4603 40.1523 12.1057 40.7415 12.1941L42.0845 12.4034C42.6734 12.4976 43.1052 13.0082 43.0999 13.6045L43.0681 16.1283C45.2947 17.2479 46.6999 19.5272 46.6999 22.0195V31.6973L48.0677 33.2928C48.1907 33.4395 48.291 33.604 48.3651 33.7806ZM36.5551 29.925L37.4197 33.4195L40.4525 33.4192C40.8673 32.3714 40.7511 31.2016 40.6223 29.9686L40.6132 29.8813C40.466 28.5355 40.2993 27.0065 40.9867 25.5703L40.5739 25.5282H40.5717L37.7971 25.097C37.9965 26.6357 37.3919 28.0102 36.8072 29.3394L36.807 29.34C36.7218 29.5347 36.6381 29.73 36.5551 29.925ZM23.9 36.4195V34.0196H19.1V36.4195C19.1011 37.4133 19.9064 38.2183 20.8999 38.2194H22.1001C23.0936 38.2183 23.8989 37.4133 23.9 36.4195ZM41.7508 29.2194H43.0999V22.0195C43.1027 21.2507 42.8066 20.5111 42.2746 19.956L41.8055 21.4919L41.3454 24.4565C41.6437 24.5535 41.8934 24.7617 42.0425 25.0377C42.2186 25.3629 42.2287 25.7526 42.07 26.0866C41.678 27.082 41.5676 28.1658 41.7508 29.2194ZM40.1633 24.2494L40.5313 21.8778L40.2748 21.8377L39.3404 21.6921L38.9727 24.0649L40.1633 24.2494ZM37.7831 23.9042L38.2426 20.9409L38.2671 19.0194H26.2999C24.644 19.0213 23.302 20.3633 23.3001 22.0195V29.2194H28.9614L27.5353 23.4535C27.3771 22.8091 27.7713 22.1582 28.4156 22L33.0741 20.8489C33.3754 20.7703 33.6959 20.8159 33.9637 20.975C34.2428 21.1378 34.4449 21.4056 34.5248 21.7187L36.078 27.9961C36.4919 27.1388 36.6705 26.1872 36.5958 25.2382C36.545 24.8724 36.6718 24.5043 36.9372 24.2472C37.1643 24.0281 37.4673 23.905 37.7831 23.9042ZM29.9284 33.1308L29.258 30.4194H27.6046L29.9284 33.1308ZM33.0425 33.2154C33.0573 33.2824 33.0604 33.3513 33.0516 33.4195H36.1835L33.3619 22.0137L28.6999 23.1659L29.42 26.0767L30.5868 25.7883C30.7958 25.734 31.018 25.7963 31.1685 25.9515C31.3188 26.1067 31.3742 26.3305 31.3133 26.5379C31.2526 26.7453 31.085 26.904 30.8746 26.9532L29.7084 27.2421L29.9966 28.4069L31.163 28.118C31.483 28.043 31.8038 28.2391 31.8826 28.5583C31.9615 28.8772 31.7692 29.2002 31.4511 29.2828L30.2844 29.5718L30.5722 30.7369L31.7393 30.4477C31.9477 30.3952 32.1686 30.4581 32.3177 30.6127C32.4671 30.7676 32.5223 30.9904 32.4624 31.1969C32.4023 31.4032 32.2364 31.5619 32.0277 31.6128L30.8604 31.9017L31.1485 33.0665L32.316 32.7776C32.4704 32.7391 32.6338 32.7638 32.7701 32.846C32.9063 32.9281 33.0043 33.061 33.0425 33.2154ZM43.7481 30.4194H41.8736C42.0115 31.4205 41.9585 32.4384 41.7176 33.4195H46.5955L44.2043 30.63C44.0895 30.4979 43.9234 30.4213 43.7481 30.4194ZM45.4999 30.2974V22.0195C45.4988 20.1828 44.5628 18.4731 43.0162 17.4827C43.0132 17.4962 43.0117 17.5101 43.0103 17.5239C43.0085 17.5415 43.0067 17.559 43.0016 17.5758L42.6588 18.6978C43.6968 19.4863 44.3043 20.7162 44.2999 22.0195V29.3216C44.615 29.418 44.8968 29.6001 45.1146 29.8475L45.4999 30.2974ZM41.9 13.5894L40.5569 13.3801L39.4948 16.8576L39.475 18.4141L39.4761 18.4195L39.475 18.4256L39.4486 20.4938L40.2844 20.6248L40.7917 20.7036L41.8541 17.2259V17.224L41.9 13.5894ZM26.2999 16.6194C23.3191 16.6227 20.9034 19.0386 20.8999 22.0195V32.8196H22.1001V22.0195C22.1026 19.7008 23.9815 17.8222 26.2999 17.8194H38.2824L38.2948 16.8427C38.2992 16.7675 38.3107 16.6925 38.3297 16.6194H26.2999ZM13.8436 34.0737C13.7505 34.1822 13.6997 34.3206 13.7 34.4634V46.6195H29.3V34.4634C29.3 34.3865 29.2855 34.3104 29.2575 34.2388C29.2303 34.1759 29.1937 34.1174 29.149 34.0652L26.2043 30.63C26.0895 30.4979 25.9234 30.4213 25.7481 30.4194H23.3001V32.8196H23.9C24.5624 32.8201 25.0994 33.3571 25.0999 34.0196V36.4195C25.098 38.0755 23.756 39.4174 22.1001 39.4194H20.8999C19.244 39.4174 17.902 38.0755 17.9001 36.4195V34.0196C17.9006 33.3571 18.4376 32.8201 19.1 32.8196H19.6999V30.4194H17.2521C17.0761 30.4213 16.9094 30.4985 16.7943 30.6314L13.8436 34.0737ZM30.5 34.6194V46.6195H47.3V34.6194H30.5ZM30.8691 24.2454C30.9053 24.0053 31.0825 23.8109 31.3181 23.7524C31.6398 23.6727 31.965 23.8688 32.0446 24.1904C32.1031 24.4261 32.0138 24.6736 31.8186 24.8178C31.6233 24.9617 31.3604 24.974 31.1525 24.8488C30.9446 24.7233 30.8328 24.4851 30.8691 24.2454ZM33.5003 35.8193H32.3003C31.9688 35.8193 31.7002 36.088 31.7002 36.4195C31.7002 36.7507 31.9688 37.0193 32.3003 37.0193H33.5003C33.8315 37.0193 34.1002 36.7507 34.1002 36.4195C34.1002 36.088 33.8315 35.8193 33.5003 35.8193ZM35.8999 35.8193H45.4998C45.8313 35.8193 46.0999 36.088 46.0999 36.4195C46.0999 36.7507 45.8313 37.0193 45.4998 37.0193H35.8999C35.5684 37.0193 35.2998 36.7507 35.2998 36.4195C35.2998 36.088 35.5684 35.8193 35.8999 35.8193Z" fill="#1C57C9"/>
</svg>
