<svg width="61" height="60" viewBox="0 0 61 60" fill="none" xmlns="http://www.w3.org/2000/svg">
<circle cx="30.5" cy="30" r="30" fill="white"/>
<path fill-rule="evenodd" clip-rule="evenodd" d="M35.3669 12.657C35.0923 12.3826 34.6471 12.3825 34.3725 12.657L33.3783 13.6512C33.1037 13.9258 33.1037 14.371 33.3783 14.6457C33.5156 14.783 33.6956 14.8516 33.8755 14.8516C34.0554 14.8516 34.2354 14.7829 34.3727 14.6457L35.3669 13.6514C35.6415 13.3769 35.6415 12.9317 35.3669 12.657ZM40.3385 12.6571C40.6134 12.3829 41.0585 12.3829 41.3334 12.6571C41.6077 12.932 41.6077 13.3771 41.3334 13.6513C41.0585 13.9262 40.6134 13.9262 40.3385 13.6513C40.0643 13.3771 40.0643 12.932 40.3385 12.6571ZM46.3051 13.6515C46.0302 13.3772 45.5851 13.3772 45.3102 13.6515C45.0359 13.9264 45.0359 14.3715 45.3102 14.6457C45.5851 14.9206 46.0302 14.9206 46.3051 14.6457C46.5794 14.3715 46.5794 13.9264 46.3051 13.6515ZM48.2937 17.629C48.0195 17.3548 47.5737 17.3548 47.2995 17.629C47.0245 17.9039 47.0245 18.349 47.2995 18.6232C47.5737 18.8981 48.0195 18.8981 48.2937 18.6232C48.5686 18.349 48.5686 17.9039 48.2937 17.629ZM16.7172 43.3316C16.4423 43.0574 15.9972 43.0574 15.7223 43.3316C15.448 43.6065 15.448 44.0516 15.7223 44.3265C15.9972 44.6007 16.4423 44.6007 16.7172 44.3265C16.9913 44.0516 16.9913 43.6065 16.7172 43.3316ZM21.4395 37.5224C21.7107 37.2444 22.1559 37.239 22.4338 37.5101C22.7116 37.7814 22.7172 38.2266 22.446 38.5044L18.7117 42.3315C18.574 42.4728 18.3913 42.5437 18.2084 42.5437C18.0314 42.5437 17.8542 42.4772 17.7174 42.3438C17.4395 42.0725 17.434 41.6274 17.7052 41.3495L21.4395 37.5224ZM45.3105 28.5674L42.8304 26.0874L42.8192 26.0762L39.8467 23.1036L39.8363 23.0932L36.8639 20.1209L36.8537 20.1106L33.8805 17.1375L33.8704 17.1274L31.3894 14.6464C31.2576 14.5145 31.0787 14.4404 30.8922 14.4404C30.7058 14.4404 30.5269 14.5145 30.3951 14.6464L22.4407 22.6005L21.4454 23.5952C20.0751 24.9663 20.0752 27.1967 21.4455 28.567L23.4348 30.5561C23.5675 30.6889 23.6406 30.8654 23.6406 31.0531C23.6406 31.2408 23.5675 31.4174 23.4348 31.5501L22.4538 32.531L13.9362 40.1593L13.9352 40.1602C13.863 40.224 13.7969 40.2858 13.7337 40.349C12.0888 41.9939 12.0888 44.6704 13.7337 46.3153C14.5293 47.1108 15.5887 47.549 16.7167 47.549C17.8448 47.549 18.9042 47.1108 19.6997 46.3154C19.764 46.2511 19.8274 46.1834 19.8934 46.1085L19.8938 46.1079L19.8948 46.1069L27.4289 37.4999L28.4066 36.5221C28.6807 36.248 29.1266 36.2481 29.4008 36.5221L31.3897 38.5103C32.0537 39.1747 32.9365 39.5407 33.8755 39.5407C34.8144 39.5407 35.6972 39.1747 36.3609 38.5106L37.3561 37.5163L45.3104 29.5618C45.585 29.2873 45.585 28.842 45.3105 28.5674ZM18.8368 45.1806C18.7912 45.2322 18.7483 45.2782 18.7055 45.3208C18.1755 45.8508 17.4693 46.1426 16.7168 46.1426C15.9643 46.1426 15.2581 45.8508 14.7282 45.3208C13.6316 44.2242 13.6316 42.44 14.728 41.3436C14.7717 41.3 14.8182 41.2566 14.8701 41.2107L14.8722 41.2087L14.8745 41.2068L22.9112 34.0093L25.953 37.0511L18.8368 45.1806ZM35.3666 37.5164C34.9683 37.915 34.4387 38.1345 33.8755 38.1345C33.3123 38.1345 32.7828 37.915 32.3842 37.5161L30.3951 35.5277C29.5728 34.7054 28.2347 34.7055 27.4123 35.5277L26.9153 36.0247L23.9321 33.0416L24.4291 32.5446C24.8275 32.1462 25.0469 31.6165 25.0469 31.0532C25.0469 30.4898 24.8274 29.9602 24.4291 29.5618L22.44 27.5726C21.6177 26.7505 21.6178 25.4121 22.4398 24.5896L22.9375 24.0922L35.8643 37.019L35.3666 37.5164ZM36.8589 36.0248L23.9321 23.0979L30.8921 16.1379L32.3839 17.6297L28.9037 21.1094C28.629 21.3839 28.629 21.8291 28.9036 22.1038C29.0409 22.2411 29.2208 22.3098 29.4008 22.3098C29.5808 22.3098 29.7607 22.2411 29.8979 22.1039L33.3783 18.6241L35.3673 20.6131L31.887 24.0928C31.6124 24.3673 31.6124 24.8125 31.8869 25.0871C32.0243 25.2245 32.2042 25.2932 32.3842 25.2932C32.5641 25.2932 32.7441 25.2245 32.8813 25.0872L36.3617 21.6075L38.35 23.5957L34.8697 27.0754C34.5951 27.3499 34.5951 27.7952 34.8697 28.0698C35.007 28.2071 35.1869 28.2758 35.3669 28.2758C35.5468 28.2758 35.7268 28.2071 35.864 28.0699L39.3444 24.5901L41.3334 26.5791L37.8531 30.0588C37.5785 30.3333 37.5785 30.7785 37.853 31.0532C37.9903 31.1905 38.1703 31.2592 38.3503 31.2592C38.5302 31.2592 38.7101 31.1905 38.8474 31.0532L42.3278 27.5735L43.819 29.0647L36.8589 36.0248ZM38.3501 14.6463C38.6248 14.3718 39.07 14.3718 39.3446 14.6463C39.6191 14.9209 39.6191 15.3662 39.3446 15.6407L37.3561 17.6292C37.2189 17.7664 37.0389 17.8351 36.8589 17.8351C36.679 17.8351 36.4991 17.7664 36.3617 17.6292C36.0871 17.3545 36.0871 16.9093 36.3617 16.6347L38.3501 14.6463ZM43.3216 15.6404C43.5963 15.3659 44.0415 15.3659 44.3161 15.6404C44.5906 15.9151 44.5906 16.3603 44.3161 16.6349L40.3385 20.6125C40.2012 20.7497 40.0212 20.8184 39.8413 20.8184C39.6614 20.8184 39.4814 20.7497 39.3441 20.6125C39.0695 20.3379 39.0695 19.8926 39.344 19.618L43.3216 15.6404ZM46.3053 19.6181C46.0307 19.3434 45.5856 19.3435 45.3109 19.618L42.3276 22.6006C42.0529 22.8752 42.0529 23.3204 42.3275 23.5951C42.4648 23.7324 42.6448 23.8011 42.8247 23.8011C43.0047 23.8011 43.1846 23.7324 43.3219 23.5952L46.3052 20.6126C46.5798 20.338 46.5798 19.8928 46.3053 19.6181ZM46.3051 24.5899C46.5797 24.3154 47.0249 24.3154 47.2995 24.5899C47.5741 24.8645 47.5741 25.3098 47.2995 25.5843L46.3053 26.5786C46.168 26.7158 45.988 26.7845 45.8081 26.7845C45.6282 26.7845 45.4482 26.7158 45.3109 26.5786C45.0363 26.3039 45.0363 25.8587 45.3109 25.5841L46.3051 24.5899Z" fill="#1C57C9"/>
</svg>
