<svg width="61" height="60" viewBox="0 0 61 60" fill="none" xmlns="http://www.w3.org/2000/svg">
<circle cx="30.5" cy="30" r="30" fill="white"/>
<path fill-rule="evenodd" clip-rule="evenodd" d="M48.1226 34.2418C47.8938 34.1509 47.6326 34.2077 47.4626 34.3857L44.9001 37.0793V21.0801H44.9031L47.3481 18.4401C47.573 18.1971 47.5582 17.8172 47.3148 17.5923L47.3143 17.5917L46.4343 16.7727L47.6571 15.4527C47.8817 15.2093 47.8666 14.8297 47.6233 14.6051L44.9833 12.1601C44.7402 11.9351 44.3606 11.9497 44.1357 12.193L39.8697 16.7993H19.1C19.0981 15.1431 17.7561 13.8012 16.0999 13.7992H15.5001C13.8439 13.8012 12.5019 15.1431 12.5 16.7993V42.5993C12.5 42.9306 12.7686 43.1992 13.1001 43.1992H22.1828L20.9227 44.7123C20.7109 44.9672 20.7455 45.3454 21.0001 45.5571L23.7668 47.8607C24.0214 48.0727 24.3998 48.0381 24.6119 47.7835L24.6122 47.7832L27.6831 44.0938C27.8951 43.8383 28.0316 43.5282 28.0767 43.1992H39.071L35.465 46.9859C35.2368 47.226 35.2464 47.6058 35.4864 47.8341C35.5979 47.9401 35.746 47.9994 35.9001 47.9991H47.8999C48.2314 47.9991 48.5 47.7305 48.5 47.3993V34.7993C48.5 34.5538 48.3506 34.333 48.1226 34.2418ZM46.0599 18.0592L44.9001 19.3138V18.4313L45.6199 17.6513L46.0599 18.0592ZM43.7001 17.9523V17.9609L38.6258 23.445L36.8636 21.8146L42.9763 15.2085L44.7386 16.8389L43.7072 17.9523H43.7001ZM37.4733 24.0124L36.0931 24.415L36.3878 23.0074L37.4733 24.0124ZM44.6067 13.4471L46.3681 15.0767L45.5529 15.9591L43.7913 14.3279L44.6067 13.4471ZM15.5001 14.9992H16.0999C17.0942 14.9992 17.9001 15.8051 17.9001 16.7993V39.6149C17.3837 39.2177 16.7512 39.0013 16.0999 38.9991H15.5001C14.8486 39.0013 14.2163 39.2177 13.7 39.6149V16.7993C13.7 15.8051 14.5058 14.9992 15.5001 14.9992ZM15.5001 40.1991H16.0999C17.0942 40.1991 17.9001 41.0052 17.9001 41.9992H13.7C13.7 41.0052 14.5058 40.1991 15.5001 40.1991ZM26.7614 43.3264L26.3774 43.7872L24.5331 42.2519L24.9165 41.7905C25.1285 41.5359 25.5067 41.5013 25.7613 41.7133L25.7616 41.7134L25.7619 41.7136L26.6839 42.4793C26.9388 42.6911 26.9737 43.0693 26.7619 43.3242L26.7614 43.3247V43.3264ZM24.0741 46.5544L22.2295 45.0191L23.7651 43.1739L25.6094 44.7095L24.0741 46.5544ZM27.8246 41.9992C27.7249 41.833 27.5988 41.6845 27.4513 41.5589L26.5293 40.7915C25.7652 40.1554 24.6303 40.259 23.9942 41.0231L23.1801 41.9992H19.1V17.9993H38.7595L35.5754 21.4402C35.5298 21.4916 35.4936 21.5509 35.4686 21.6149C35.4614 21.6322 35.4559 21.6484 35.4499 21.6665C35.4477 21.6734 35.445 21.6803 35.4422 21.6873C35.4378 21.6985 35.4334 21.7099 35.4307 21.7217L34.7144 25.1465C34.6468 25.4708 34.855 25.7886 35.1794 25.8562C35.2758 25.8762 35.3755 25.8724 35.4697 25.8449L38.8298 24.8658C38.8382 24.8631 38.8459 24.8593 38.8534 24.8555C38.86 24.8522 38.8666 24.849 38.8735 24.8465C38.8886 24.841 38.9043 24.8333 38.9205 24.8254C38.9878 24.7949 39.0487 24.7518 39.1004 24.6988L43.7001 19.7277V38.3391L40.2141 41.9992H27.8246ZM47.3 46.7991H37.2997L47.3 36.2992V46.7991ZM40.7459 45.2289C40.8387 45.453 41.0576 45.5991 41.3004 45.5991H45.5002C45.8317 45.5991 46.1003 45.3305 46.1003 44.9993V40.7992C46.1003 40.4677 45.8314 40.1993 45.5002 40.1993C45.3412 40.1993 45.1884 40.2625 45.0761 40.3751L40.876 44.5749C40.7044 44.7466 40.653 45.0048 40.7459 45.2289ZM44.9003 42.2475V44.3991H42.7487L44.9003 42.2475ZM34.7001 34.7994H38.8999C39.2314 34.7994 39.5 35.068 39.5 35.3992C39.5 35.7307 39.2314 35.9994 38.9001 35.9994H22.1001C21.7686 35.9994 21.5 35.7307 21.5 35.3992C21.5 35.068 21.7686 34.7994 22.1001 34.7994H26.2999V28.1993C26.3005 28.0403 26.3634 27.8876 26.4752 27.7744L30.0751 24.1745C30.3094 23.9402 30.6892 23.9402 30.9235 24.1745L34.5235 27.7744C34.6358 27.8873 34.6992 28.04 34.7001 28.1993V34.7994ZM32.6517 27.5992L30.5 25.4475L28.3483 27.5992H32.6517ZM33.5001 34.7994V28.7992H27.4999V34.7994H33.5001ZM29.8994 21.5994H31.0997V22.7993H29.8994V21.5994ZM31.0997 37.1992H29.8994V38.3992H31.0997V37.1992Z" fill="#1C57C9"/>
</svg>
