<svg width="26" height="26" viewBox="0 0 26 26" fill="none" xmlns="http://www.w3.org/2000/svg">
<path d="M24.5643 0.467773H1.4344C0.642368 0.46816 0.000289971 1.094 0.000488327 1.86572V24.3967C0.000885039 25.1682 0.64336 25.7936 1.43559 25.7935H24.5643C25.3567 25.7936 25.9992 25.168 25.9994 24.3961C25.9994 24.3959 25.9994 24.3957 25.9994 24.3955V1.86456C25.999 1.09303 25.3565 0.46758 24.5643 0.467773Z" fill="#4267B2"/>
<path d="M17.9512 25.7944V16.0003H21.3407L21.8485 12.1667H17.9512V9.72509C17.9512 8.61772 18.2668 7.86318 19.8969 7.86318H21.9628V4.44368C21.6033 4.39712 20.3702 4.29297 18.9353 4.29297C15.9393 4.29297 13.8889 6.07373 13.8889 9.34541V12.1667H10.5121V16.0003H13.8889V25.7944H17.9512Z" fill="white"/>
</svg>
