<svg width="148" height="43" viewBox="0 0 148 43" fill="none" xmlns="http://www.w3.org/2000/svg">
<path d="M60.624 30.4931C59.568 30.4931 58.536 30.3011 57.528 29.9171C56.52 29.5171 55.632 28.9491 54.864 28.2131L56.76 25.9571C57.336 26.4691 57.968 26.8771 58.656 27.1811C59.36 27.4851 60.04 27.6371 60.696 27.6371C61.464 27.6371 62.048 27.4931 62.448 27.2051C62.864 26.9011 63.072 26.4851 63.072 25.9571C63.072 25.6211 62.976 25.3411 62.784 25.1171C62.608 24.8931 62.376 24.7091 62.088 24.5651C61.816 24.4211 61.368 24.2211 60.744 23.9651L58.68 23.0771C57.752 22.6931 56.992 22.1571 56.4 21.4691C55.808 20.7651 55.512 19.8851 55.512 18.8291C55.512 17.9811 55.744 17.2131 56.208 16.5251C56.688 15.8211 57.344 15.2691 58.176 14.8691C59.008 14.4531 59.944 14.2451 60.984 14.2451C61.896 14.2451 62.792 14.4291 63.672 14.7971C64.552 15.1491 65.312 15.6451 65.952 16.2851L64.296 18.3731C63.752 17.9411 63.216 17.6211 62.688 17.4131C62.16 17.2051 61.592 17.1011 60.984 17.1011C60.328 17.1011 59.808 17.2371 59.424 17.5091C59.04 17.7811 58.848 18.1571 58.848 18.6371C58.848 18.9731 58.944 19.2531 59.136 19.4771C59.344 19.7011 59.592 19.8851 59.88 20.0291C60.184 20.1731 60.648 20.3731 61.272 20.6291L63.288 21.4451C64.296 21.8611 65.072 22.4131 65.616 23.1011C66.16 23.7731 66.432 24.6371 66.432 25.6931C66.432 26.5731 66.2 27.3811 65.736 28.1171C65.272 28.8371 64.6 29.4131 63.72 29.8451C62.84 30.2771 61.808 30.4931 60.624 30.4931ZM68.8742 18.3251H72.1382V30.2051H68.8742V18.3251ZM70.5062 16.4771C69.9622 16.4771 69.5142 16.3171 69.1622 15.9971C68.8262 15.6611 68.6582 15.2371 68.6582 14.7251C68.6582 14.2131 68.8262 13.7971 69.1622 13.4771C69.5142 13.1411 69.9622 12.9731 70.5062 12.9731C71.0502 12.9731 71.4902 13.1411 71.8262 13.4771C72.1782 13.7971 72.3542 14.2131 72.3542 14.7251C72.3542 15.2371 72.1782 15.6611 71.8262 15.9971C71.4902 16.3171 71.0502 16.4771 70.5062 16.4771ZM75.4133 18.3251H78.0773L78.3173 19.5251H78.4133C78.9093 19.0771 79.4533 18.7171 80.0453 18.4451C80.6533 18.1731 81.2533 18.0371 81.8453 18.0371C83.2853 18.0371 84.4213 18.5811 85.2533 19.6691C86.0853 20.7571 86.5013 22.2291 86.5013 24.0851C86.5013 25.3811 86.2693 26.5171 85.8053 27.4931C85.3413 28.4691 84.7253 29.2131 83.9573 29.7251C83.1893 30.2371 82.3653 30.4931 81.4853 30.4931C80.4773 30.4931 79.5093 30.0691 78.5813 29.2211L78.6773 31.1411V34.7171H75.4133V18.3251ZM80.7413 27.8051C81.4453 27.8051 82.0213 27.4931 82.4693 26.8691C82.9173 26.2451 83.1413 25.3251 83.1413 24.1091C83.1413 21.8531 82.3973 20.7251 80.9093 20.7251C80.1733 20.7251 79.4293 21.1091 78.6773 21.8771V26.9651C79.3173 27.5251 80.0053 27.8051 80.7413 27.8051ZM89.1008 13.3331H92.3648V17.5331L92.2208 19.7411C92.7808 19.2131 93.3568 18.7971 93.9488 18.4931C94.5408 18.1891 95.2048 18.0371 95.9408 18.0371C97.1888 18.0371 98.1088 18.4531 98.7008 19.2851C99.3088 20.1011 99.6128 21.2771 99.6128 22.8131V30.2051H96.3248V23.2211C96.3248 22.3411 96.1968 21.7251 95.9408 21.3731C95.7008 21.0211 95.3008 20.8451 94.7408 20.8451C94.2928 20.8451 93.9008 20.9411 93.5648 21.1331C93.2288 21.3251 92.8288 21.6451 92.3648 22.0931V30.2051H89.1008V13.3331ZM107.734 30.4931C106.71 30.4931 105.758 30.2451 104.878 29.7491C104.014 29.2531 103.318 28.5331 102.79 27.5891C102.262 26.6451 101.998 25.5411 101.998 24.2771C101.998 22.9971 102.262 21.8851 102.79 20.9411C103.318 19.9971 104.014 19.2771 104.878 18.7811C105.758 18.2851 106.71 18.0371 107.734 18.0371C108.742 18.0371 109.686 18.2851 110.566 18.7811C111.446 19.2771 112.15 20.0051 112.678 20.9651C113.206 21.9091 113.47 23.0131 113.47 24.2771C113.47 25.5411 113.206 26.6451 112.678 27.5891C112.15 28.5331 111.446 29.2531 110.566 29.7491C109.686 30.2451 108.742 30.4931 107.734 30.4931ZM107.734 27.8291C108.486 27.8291 109.07 27.5171 109.486 26.8931C109.902 26.2531 110.11 25.3811 110.11 24.2771C110.11 23.1731 109.902 22.3011 109.486 21.6611C109.07 21.0211 108.486 20.7011 107.734 20.7011C106.966 20.7011 106.374 21.0211 105.958 21.6611C105.558 22.3011 105.358 23.1731 105.358 24.2771C105.358 25.3811 105.558 26.2531 105.958 26.8931C106.374 27.5171 106.966 27.8291 107.734 27.8291ZM115.984 18.3251H118.648L118.888 19.8851H118.984C119.56 19.2931 120.128 18.8371 120.688 18.5171C121.248 18.1971 121.88 18.0371 122.584 18.0371C123.416 18.0371 124.096 18.2131 124.624 18.5651C125.152 18.9011 125.568 19.4051 125.872 20.0771C126.48 19.4371 127.08 18.9411 127.672 18.5891C128.264 18.2211 128.912 18.0371 129.616 18.0371C130.864 18.0371 131.792 18.4531 132.4 19.2851C133.008 20.1171 133.312 21.2931 133.312 22.8131V30.2051H130.048V23.2211C130.048 22.3571 129.92 21.7491 129.664 21.3971C129.424 21.0291 129.024 20.8451 128.464 20.8451C127.824 20.8451 127.096 21.2611 126.28 22.0931V30.2051H123.016V23.2211C123.016 22.3571 122.888 21.7491 122.632 21.3971C122.392 21.0291 121.992 20.8451 121.432 20.8451C120.792 20.8451 120.064 21.2611 119.248 22.0931V30.2051H115.984V18.3251ZM146.285 23.7251C146.285 24.3331 146.237 24.8291 146.141 25.2131H138.797C138.957 26.1571 139.341 26.8531 139.949 27.3011C140.573 27.7491 141.293 27.9731 142.109 27.9731C142.957 27.9731 143.837 27.7091 144.749 27.1811L145.829 29.1731C145.237 29.5891 144.573 29.9171 143.837 30.1571C143.117 30.3811 142.397 30.4931 141.677 30.4931C140.557 30.4931 139.541 30.2451 138.629 29.7491C137.733 29.2531 137.021 28.5331 136.493 27.5891C135.981 26.6451 135.725 25.5411 135.725 24.2771C135.725 23.0291 135.981 21.9331 136.493 20.9891C137.021 20.0451 137.709 19.3171 138.557 18.8051C139.405 18.2931 140.309 18.0371 141.269 18.0371C142.885 18.0371 144.125 18.5651 144.989 19.6211C145.853 20.6611 146.285 22.0291 146.285 23.7251ZM143.477 23.0291C143.477 22.2611 143.301 21.6611 142.949 21.2291C142.597 20.7811 142.061 20.5571 141.341 20.5571C140.749 20.5571 140.221 20.7651 139.757 21.1811C139.309 21.5811 139.005 22.1971 138.845 23.0291H143.477Z" fill="#1C57C9"/>
<path d="M0 21.7051C-3.63102e-07 25.8585 1.23163 29.9186 3.53914 33.3721C5.84665 36.8255 9.1264 39.5171 12.9636 41.1065C16.8009 42.696 21.0233 43.1119 25.0969 42.3016C29.1705 41.4913 32.9123 39.4912 35.8492 36.5543C38.7861 33.6174 40.7862 29.8756 41.5965 25.802C42.4068 21.7284 41.9909 17.506 40.4015 13.6687C38.812 9.83148 36.1204 6.55173 32.667 4.24422C29.2135 1.93671 25.1534 0.705078 21 0.705078L21 21.7051L0 21.7051Z" fill="#1ECE7A"/>
<path d="M33.1344 22.2053C33.1344 18.987 31.856 15.9006 29.5803 13.6249C27.3047 11.3493 24.2182 10.0708 21 10.0708C17.7817 10.0708 14.6952 11.3493 12.4196 13.6249C10.1439 15.9006 8.86548 18.987 8.86548 22.2053L21 22.2053H33.1344Z" fill="#1C57C9"/>
</svg>
