<svg width="60" height="61" viewBox="0 0 60 61" fill="none" xmlns="http://www.w3.org/2000/svg">
<circle cx="30" cy="30.7051" r="30" fill="white"/>
<path fill-rule="evenodd" clip-rule="evenodd" d="M45.8906 18.3301H44.2031V14.8145C44.2031 13.6513 43.2569 12.7051 42.0938 12.7051H17.9062C16.7431 12.7051 15.7969 13.6513 15.7969 14.8145V18.3301H14.1094C12.9463 18.3301 12 19.2763 12 20.4395V40.6893C12 41.8524 12.9463 42.7987 14.1094 42.7987H26.4844V44.486H25.1467C23.9836 44.486 23.0374 45.4323 23.0374 46.5954V48.002C23.0374 48.3903 23.3522 48.7051 23.7405 48.7051H36.2596C36.6479 48.7051 36.9627 48.3903 36.9627 48.002V46.5954C36.9627 45.4323 36.0164 44.486 34.8533 44.486H33.5156V42.7987H45.8906C47.0537 42.7987 48 41.8524 48 40.6893V20.4395C48 19.2763 47.0537 18.3301 45.8906 18.3301ZM45.8906 19.7363C46.2783 19.7363 46.5938 20.0518 46.5938 20.4395V36.6112H44.2031V19.7363H45.8906ZM17.9062 14.1113H42.0938C42.4815 14.1113 42.7969 14.4267 42.7969 14.8145V18.3301H17.2031V14.8145C17.2031 14.4267 17.5185 14.1113 17.9062 14.1113ZM14.1094 19.7363H15.7969V25.0091C15.7969 25.3974 16.1117 25.7122 16.5 25.7122C16.8883 25.7122 17.2031 25.3974 17.2031 25.0091V19.7363H42.7969V36.6112H39.2109V34.2941C39.2109 33.9058 38.8961 33.591 38.5078 33.591H37.593C37.4322 33.0373 37.2115 32.5051 36.9332 31.9993L37.5805 31.3522C37.855 31.0776 37.855 30.6324 37.5805 30.3577L35.4458 28.223C35.1712 27.9485 34.726 27.9485 34.4513 28.223L33.8042 28.8703C33.2985 28.592 32.7662 28.3713 32.2125 28.2106V27.2958C32.2125 26.9074 31.8977 26.5926 31.5094 26.5926H28.4905C28.1021 26.5926 27.7873 26.9074 27.7873 27.2958V28.2106C27.2337 28.3714 26.7014 28.592 26.1957 28.8703L25.5485 28.223C25.2739 27.9485 24.8287 27.9485 24.5541 28.223L22.4194 30.3577C22.1448 30.6323 22.1448 31.0775 22.4194 31.3522L23.0666 31.9993C22.7883 32.505 22.5677 33.0373 22.4069 33.591H21.4922C21.1039 33.591 20.7891 33.9058 20.7891 34.2941V36.6112H17.2031V31.3372C17.2031 30.9489 16.8883 30.6341 16.5 30.6341C16.1117 30.6341 15.7969 30.9489 15.7969 31.3372V36.6112H13.4062V20.4395C13.4062 20.0518 13.7217 19.7363 14.1094 19.7363ZM24.4485 31.3923L23.9111 30.8549L25.0514 29.7146L25.5888 30.252C25.8234 30.4865 26.1901 30.5252 26.4686 30.3447C27.1339 29.9133 27.8636 29.6109 28.6372 29.4459C28.9618 29.3767 29.1937 29.0901 29.1937 28.7583V27.9987H30.8064V28.7583C30.8064 29.0901 31.0384 29.3767 31.3629 29.4459C32.1365 29.6109 32.8661 29.9132 33.5316 30.3447C33.81 30.5252 34.1767 30.4865 34.4113 30.252L34.9487 29.7146L36.0891 30.8549L35.5517 31.3923C35.3171 31.6269 35.2784 31.9936 35.4589 32.2721C35.8904 32.9375 36.1928 33.6671 36.3577 34.4407C36.4269 34.7652 36.7136 34.9972 37.0454 34.9972H37.8047V36.6112H33.4212C33.4838 36.3475 33.516 36.0765 33.516 35.8036C33.516 33.8648 31.9387 32.2875 30 32.2875C28.0613 32.2875 26.484 33.8649 26.484 35.8036C26.484 36.0765 26.5162 36.3475 26.5788 36.6112H22.1953V34.9972H22.9548C23.2866 34.9972 23.5732 34.7653 23.6424 34.4407C23.8074 33.6671 24.1098 32.9374 24.5412 32.2721C24.7218 31.9937 24.6831 31.6269 24.4485 31.3923ZM27.8902 35.8036C27.8902 34.6403 28.8366 33.6938 30 33.6938C31.1634 33.6938 32.1098 34.6403 32.1098 35.8036C32.1098 36.0812 32.0536 36.3555 31.947 36.6112H28.053C27.9464 36.3555 27.8902 36.0812 27.8902 35.8036ZM35.5564 46.5954V47.2988H24.4436V46.5954C24.4436 46.2077 24.759 45.8923 25.1467 45.8923H34.8533C35.241 45.8923 35.5564 46.2077 35.5564 46.5954ZM27.8906 44.486V42.7987H32.1094V44.486H27.8906ZM14.1094 41.3924C13.7217 41.3924 13.4062 41.077 13.4062 40.6893V38.0174H46.5938V40.6893C46.5938 41.077 46.2783 41.3924 45.8906 41.3924H14.1094ZM32.1094 16.9238H39.7031C40.0915 16.9238 40.4062 16.609 40.4062 16.2207C40.4062 15.8324 40.0915 15.5176 39.7031 15.5176H32.1094C31.721 15.5176 31.4062 15.8324 31.4062 16.2207C31.4062 16.609 31.721 16.9238 32.1094 16.9238ZM23.8877 16.7178C23.757 16.8486 23.5755 16.9238 23.3906 16.9238C23.2057 16.9238 23.0243 16.8486 22.8935 16.7178C22.7627 16.587 22.6875 16.4056 22.6875 16.2207C22.6875 16.0358 22.7627 15.8544 22.8935 15.7236C23.0243 15.5928 23.2057 15.5176 23.3906 15.5176C23.5755 15.5176 23.757 15.5928 23.8877 15.7236C24.0185 15.8544 24.0938 16.0358 24.0938 16.2207C24.0938 16.4056 24.0185 16.587 23.8877 16.7178ZM20.2969 16.9238C20.4818 16.9238 20.6632 16.8486 20.794 16.7178C20.9248 16.587 21 16.4056 21 16.2207C21 16.0358 20.9248 15.8544 20.794 15.7236C20.6632 15.5928 20.4818 15.5176 20.2969 15.5176C20.112 15.5176 19.9305 15.5928 19.7998 15.7236C19.669 15.8544 19.5938 16.0358 19.5938 16.2207C19.5938 16.4056 19.669 16.587 19.7998 16.7178C19.9305 16.8486 20.112 16.9238 20.2969 16.9238ZM26.9815 16.7178C26.8507 16.8486 26.6693 16.9238 26.4844 16.9238C26.2995 16.9238 26.118 16.8486 25.9873 16.7178C25.8565 16.587 25.7812 16.4056 25.7812 16.2207C25.7812 16.0358 25.8565 15.8544 25.9873 15.7236C26.118 15.5928 26.2995 15.5176 26.4844 15.5176C26.6693 15.5176 26.8507 15.5928 26.9815 15.7236C27.1123 15.8544 27.1875 16.0358 27.1875 16.2207C27.1875 16.4056 27.1123 16.587 26.9815 16.7178ZM19.875 23.1112H21.5483C21.9366 23.1112 22.2514 22.7964 22.2514 22.4081C22.2514 22.0197 21.9366 21.705 21.5483 21.705H19.875C19.4867 21.705 19.1719 22.0197 19.1719 22.4081C19.1719 22.7964 19.4867 23.1112 19.875 23.1112ZM31.0924 23.1112H24.6421C24.2538 23.1112 23.939 22.7964 23.939 22.4081C23.939 22.0197 24.2538 21.705 24.6421 21.705H31.0924C31.4808 21.705 31.7955 22.0197 31.7955 22.4081C31.7955 22.7964 31.4808 23.1112 31.0924 23.1112ZM19.875 26.4861H23.9531C24.3415 26.4861 24.6562 26.1713 24.6562 25.783C24.6562 25.3946 24.3415 25.0798 23.9531 25.0798H19.875C19.4867 25.0798 19.1719 25.3946 19.1719 25.783C19.1719 26.1713 19.4867 26.4861 19.875 26.4861ZM40.1249 23.1112H34.186C33.7977 23.1112 33.4829 22.7964 33.4829 22.4081C33.4829 22.0197 33.7977 21.705 34.186 21.705H40.1249C40.5132 21.705 40.828 22.0197 40.828 22.4081C40.828 22.7964 40.5132 23.1112 40.1249 23.1112ZM40.1251 25.0798H35.313C34.9247 25.0798 34.6099 25.3946 34.6099 25.783C34.6099 26.1713 34.9247 26.4861 35.313 26.4861H40.1251C40.5134 26.4861 40.8282 26.1713 40.8282 25.783C40.8282 25.3946 40.5134 25.0798 40.1251 25.0798ZM16.9971 28.6702C16.8663 28.801 16.6849 28.8762 16.5 28.8762C16.3151 28.8762 16.1337 28.801 16.0029 28.6702C15.8721 28.5394 15.7969 28.358 15.7969 28.1731C15.7969 27.9882 15.8721 27.8068 16.0029 27.676C16.1337 27.5452 16.3151 27.47 16.5 27.47C16.6849 27.47 16.8663 27.5452 16.9971 27.676C17.1279 27.8068 17.2031 27.9882 17.2031 28.1731C17.2031 28.358 17.1279 28.5394 16.9971 28.6702Z" fill="#1C57C9"/>
</svg>
