<svg width="56" height="56" viewBox="0 0 56 56" fill="none" xmlns="http://www.w3.org/2000/svg">
<rect opacity="0.6" x="0.5" y="0.705078" width="55" height="55" rx="24" fill="#C5D7F2"/>
<path fill-rule="evenodd" clip-rule="evenodd" d="M41.5995 26.8152C43.3402 27.0636 44.7076 28.4154 44.9588 30.1361C45.2717 32.2796 43.7678 34.2681 41.5995 34.5774C39.4313 34.8868 37.4199 33.4 37.1069 31.2565C36.794 29.113 38.298 27.1246 40.4662 26.8152V25.7985C40.4662 23.6048 38.8138 21.8212 36.7829 21.8212C34.8098 21.8212 33.1563 23.551 33.0997 25.6769V36.6896C33.0997 40.8311 29.9224 44.2051 26.0164 44.2051C22.1105 44.2051 18.9332 40.835 18.9332 36.6896V35.7334C18.1116 35.7334 17.2332 35.1446 17.2332 33.4926V32.0838C13.5981 31.1667 11 28.0784 11 24.5745V23.4093H12.1333V16.1269C12.1371 14.7648 13.1314 13.6029 14.4895 13.3736C14.647 12.8928 15.0141 12.5072 15.4898 12.3224C16.3677 11.9815 17.359 12.4087 17.7039 13.2766C18.0488 14.1444 17.6167 15.1245 16.7388 15.4654C15.8608 15.8064 14.8695 15.3792 14.5246 14.5113C13.785 14.7081 13.2699 15.3697 13.2666 16.1269V23.4093H14.9666V24.5935C15.0102 26.5405 16.3286 28.2335 18.2215 28.7731C19.2354 29.0911 20.3241 29.0911 21.3381 28.7731C23.2331 28.2354 24.5546 26.5421 24.5998 24.5935V23.4093H25.7331L25.7076 16.1218C25.7017 15.3757 25.1988 14.7228 24.4729 14.5186C24.2864 14.9772 23.9041 15.3308 23.4287 15.4842C22.5409 15.7707 21.5863 15.2915 21.2965 14.4139C21.0067 13.5362 21.4915 12.5925 22.3792 12.306C23.267 12.0195 24.2216 12.4988 24.5114 13.3764C25.8548 13.6166 26.8344 14.7689 26.8426 16.1185L26.8664 23.4093H27.9997V24.5773C27.9997 28.0773 25.4033 31.1645 21.7665 32.0838V33.4926C21.7665 35.1446 20.8882 35.7334 20.0665 35.7334V36.6896C20.0665 40.2149 22.7355 43.0847 26.0164 43.0847C29.2974 43.0847 31.9663 40.2188 31.9663 36.6896V25.65L31.9992 25.6444H31.9663C32.044 22.9174 34.2035 20.6991 36.7829 20.6991C39.4389 20.6991 41.5995 22.9869 41.5995 25.7968V26.8152ZM22.3332 13.8861C22.3332 14.1955 22.5869 14.4463 22.8998 14.4463C23.2128 14.4463 23.4665 14.1955 23.4665 13.8861C23.4665 13.5768 23.2128 13.3259 22.8998 13.3259C22.5869 13.3259 22.3332 13.5768 22.3332 13.8861ZM16.6666 13.8861C16.6666 13.5768 16.4129 13.3259 16.0999 13.3259C15.787 13.3259 15.5333 13.5768 15.5333 13.8861C15.5333 14.1955 15.787 14.4463 16.0999 14.4463C16.4129 14.4463 16.6666 14.1955 16.6666 13.8861ZM12.1333 24.5297V24.5745C12.1333 27.6908 14.5631 30.4329 17.9132 31.095C18.1718 31.1478 18.433 31.1869 18.6958 31.2121C19.4941 31.291 20.2998 31.2519 21.0865 31.0962C24.4366 30.4329 26.8664 27.6908 26.8664 24.5745V24.5297H25.7331V24.5935C25.6898 27.0291 24.0498 29.1541 21.6849 29.8385C20.4463 30.2263 19.1167 30.2263 17.8781 29.8385C15.5143 29.1532 13.8758 27.0283 13.8333 24.5935V24.5297H12.1333ZM18.3666 33.4926C18.3666 33.8288 18.4232 34.613 18.9332 34.613H20.066C20.5759 34.613 20.6326 33.8288 20.6326 33.4926V32.3039C20.6086 32.3069 20.584 32.3088 20.5595 32.3107C20.5384 32.3123 20.5173 32.3139 20.4966 32.3162C20.4568 32.3205 20.4162 32.3239 20.3764 32.3272C20.3578 32.3288 20.3395 32.3303 20.3215 32.3319C20.0552 32.3555 19.7855 32.3717 19.5135 32.3717H19.4851C19.2126 32.3711 18.9423 32.3555 18.6742 32.3319C18.66 32.3307 18.6458 32.3294 18.6316 32.3282C18.5892 32.3245 18.5467 32.3209 18.5042 32.3162C18.486 32.3145 18.4676 32.313 18.4492 32.3116C18.4215 32.3094 18.3938 32.3073 18.3666 32.3039V33.4926ZM38.1996 30.6917C38.1996 32.2386 39.4681 33.4926 41.0329 33.4926C42.5968 33.4908 43.8643 32.2379 43.8661 30.6917C43.8661 29.1448 42.5976 27.8908 41.0329 27.8908C39.4681 27.8908 38.1996 29.1448 38.1996 30.6917ZM39.333 30.6917C39.333 29.7636 40.0941 29.0112 41.033 29.0112C41.9719 29.0112 42.733 29.7636 42.733 30.6917C42.733 31.6199 41.9719 32.3723 41.033 32.3723C40.0941 32.3723 39.333 31.6199 39.333 30.6917ZM40.4663 30.6917C40.4663 31.0011 40.72 31.2519 41.033 31.2519C41.3459 31.2519 41.5996 31.0011 41.5996 30.6917C41.5996 30.3824 41.3459 30.1315 41.033 30.1315C40.72 30.1315 40.4663 30.3824 40.4663 30.6917Z" fill="#2682D6"/>
</svg>
