<svg width="28" height="28" viewBox="0 0 28 28" fill="none" xmlns="http://www.w3.org/2000/svg">
<path d="M19.6589 0.493652H8.3416C3.74216 0.493652 0.000244141 4.13879 0.000244141 8.61928V19.6439C0.000244141 24.1244 3.74216 27.7695 8.3416 27.7695H19.6589C24.2583 27.7695 28.0002 24.1244 28.0002 19.6439V8.61928C28.0002 4.13879 24.2583 0.493652 19.6589 0.493652ZM25.1834 19.6439C25.1834 22.6161 22.71 25.0256 19.6589 25.0256H8.3416C5.2905 25.0256 2.81704 22.6161 2.81704 19.6439V8.61928C2.81704 5.64704 5.2905 3.2376 8.3416 3.2376H19.6589C22.71 3.2376 25.1834 5.64704 25.1834 8.61928V19.6439Z" fill="url(#paint0_linear)"/>
<path d="M13.9995 7.07617C10.0064 7.07617 6.75769 10.2409 6.75769 14.1308C6.75769 18.0208 10.0064 21.1855 13.9995 21.1855C17.9927 21.1855 21.2413 18.0208 21.2413 14.1308C21.2413 10.2409 17.9927 7.07617 13.9995 7.07617ZM13.9995 18.4416C11.5556 18.4416 9.5745 16.5116 9.5745 14.1309C9.5745 11.7501 11.5557 9.8202 13.9995 9.8202C16.4434 9.8202 18.4245 11.7501 18.4245 14.1309C18.4245 16.5116 16.4433 18.4416 13.9995 18.4416Z" fill="url(#paint1_linear)"/>
<path d="M21.2564 8.81982C22.2148 8.81982 22.9917 8.06299 22.9917 7.12939C22.9917 6.1958 22.2148 5.43896 21.2564 5.43896C20.298 5.43896 19.5211 6.1958 19.5211 7.12939C19.5211 8.06299 20.298 8.81982 21.2564 8.81982Z" fill="url(#paint2_linear)"/>
<defs>
<linearGradient id="paint0_linear" x1="14.0002" y1="27.6901" x2="14.0002" y2="0.705509" gradientUnits="userSpaceOnUse">
<stop stop-color="#E09B3D"/>
<stop offset="0.3" stop-color="#C74C4D"/>
<stop offset="0.6" stop-color="#C21975"/>
<stop offset="1" stop-color="#7024C4"/>
</linearGradient>
<linearGradient id="paint1_linear" x1="13.9995" y1="27.6898" x2="13.9995" y2="0.704423" gradientUnits="userSpaceOnUse">
<stop stop-color="#E09B3D"/>
<stop offset="0.3" stop-color="#C74C4D"/>
<stop offset="0.6" stop-color="#C21975"/>
<stop offset="1" stop-color="#7024C4"/>
</linearGradient>
<linearGradient id="paint2_linear" x1="21.2564" y1="27.6898" x2="21.2564" y2="0.704773" gradientUnits="userSpaceOnUse">
<stop stop-color="#E09B3D"/>
<stop offset="0.3" stop-color="#C74C4D"/>
<stop offset="0.6" stop-color="#C21975"/>
<stop offset="1" stop-color="#7024C4"/>
</linearGradient>
</defs>
</svg>
