<svg width="30" height="24" viewBox="0 0 30 24" fill="none" xmlns="http://www.w3.org/2000/svg">
<path d="M9.435 23.8201C20.7563 23.8201 26.9474 14.8262 26.9474 7.02733C26.9474 6.77189 26.9419 6.5175 26.93 6.26452C28.1317 5.43135 29.1761 4.39164 30.0002 3.2082C28.8974 3.67844 27.7104 3.99458 26.4657 4.1376C27.7363 3.40664 28.712 2.25082 29.1721 0.872987C27.9829 1.54906 26.6658 2.04024 25.2638 2.30553C24.1406 1.15834 22.5414 0.440918 20.7708 0.440918C17.372 0.440918 14.6154 3.084 14.6154 6.34211C14.6154 6.80549 14.6696 7.25585 14.775 7.68792C9.65955 7.4411 5.12326 5.0927 2.08787 1.52144C1.55949 2.3935 1.25458 3.40682 1.25458 4.48805C1.25458 6.53545 2.34123 8.34342 3.99349 9.40072C2.98371 9.37099 2.03521 9.10517 1.20596 8.66272C1.20504 8.68752 1.20504 8.71162 1.20504 8.73801C1.20504 11.5964 3.32661 13.983 6.14331 14.5238C5.62594 14.6587 5.08161 14.7314 4.52021 14.7314C4.1243 14.7314 3.7383 14.6941 3.3633 14.625C4.14687 16.97 6.41924 18.6765 9.1132 18.7243C7.0065 20.3076 4.35271 21.2508 1.4685 21.2508C0.972413 21.2508 0.482017 21.2235 0.000244141 21.169C2.7243 22.8432 5.95893 23.8203 9.43518 23.8203" fill="#008EE8"/>
</svg>
