<svg width="56" height="56" viewBox="0 0 56 56" fill="none" xmlns="http://www.w3.org/2000/svg">
<rect opacity="0.6" x="0.5" y="0.705078" width="55" height="55" rx="24" fill="#C5F2DC"/>
<path fill-rule="evenodd" clip-rule="evenodd" d="M37.2351 14.1949L28.2332 10.2553C28.0801 10.1885 27.9062 10.1885 27.7531 10.2553L18.7512 14.1949C18.5326 14.2903 18.3912 14.506 18.3911 14.7445V24.1645C18.3944 26.2815 19.4119 28.2688 21.1277 29.5093L27.3492 33.9955C27.7335 34.2735 28.2528 34.2735 28.6371 33.9955L34.8586 29.5099C36.5744 28.2694 37.5919 26.2821 37.5952 24.1651V14.7445C37.5951 14.506 37.4537 14.2903 37.2351 14.1949ZM36.3949 24.1651C36.3922 25.8966 35.5599 27.522 34.1565 28.5367L27.9932 32.9809L21.8298 28.5367C20.4264 27.522 19.5941 25.8966 19.5914 24.1651V15.1369L27.9932 11.4601L36.3949 15.1369V24.1651ZM27.7535 12.8755L21.1521 15.7651C20.9335 15.8605 20.7921 16.0763 20.792 16.3147V24.1657C20.7938 25.5119 21.441 26.7756 22.5324 27.5641L27.6424 31.2493C27.8521 31.4005 28.135 31.4005 28.3446 31.2493L33.4547 27.5641C34.546 26.7756 35.1932 25.5119 35.1951 24.1657V16.3147C35.1949 16.0763 35.0536 15.8605 34.835 15.7651L28.2336 12.8755C28.0805 12.8087 27.9065 12.8087 27.7535 12.8755ZM33.9948 16.7065V24.1657C33.993 25.1263 33.5311 26.028 32.7525 26.5909L27.9935 30.0229L23.2345 26.5909C22.4559 26.028 21.9941 25.1263 21.9922 24.1657V16.7065L27.9935 14.0803L33.9948 16.7065ZM13.6635 27.0925L14.9616 30.1249C15.9734 29.4547 17.3044 29.5238 18.2413 30.2953C19.2506 31.2229 20.4131 31.9688 21.677 32.4997C22.4718 32.7804 23.1671 33.2874 23.6772 33.9583C24.5474 35.082 25.0111 36.4673 24.9927 37.8883V39.0049C25.6556 39.0049 26.193 39.5421 26.193 40.2049V45.0049C26.193 45.6676 25.6556 46.2049 24.9927 46.2049H18.3913C17.7284 46.2049 17.1911 45.6676 17.1911 45.0049V40.2049C17.1917 39.9014 17.308 39.6096 17.5163 39.3889L13.8178 35.6905C13.2736 35.1474 12.8322 34.5103 12.5149 33.8101L10.163 28.6375C9.88693 28.0123 9.96545 27.2874 10.369 26.7358C10.7725 26.1842 11.4397 25.8897 12.1192 25.9633C12.7988 26.0369 13.3875 26.4673 13.6635 27.0925ZM18.3913 45.0049H24.9927V40.2049H18.3913V45.0049ZM23.7925 37.8883C23.8107 36.7398 23.44 35.6189 22.7404 34.7077C22.3732 34.2189 21.8718 33.8474 21.2971 33.6385C19.8868 33.0647 18.5902 32.2438 17.4683 31.2145C16.9071 30.7521 16.1008 30.7387 15.5245 31.1821C15.741 31.5057 15.9888 31.8072 16.2645 32.0821L19.0059 34.8235C19.1619 34.9741 19.2244 35.1972 19.1695 35.407C19.1146 35.6168 18.9507 35.7806 18.7409 35.8355C18.5311 35.8904 18.3079 35.8279 18.1573 35.6719L15.4159 32.9305C14.7727 32.2894 14.2589 31.5306 13.9024 30.6955L12.5599 27.5653C12.448 27.3028 12.19 27.1325 11.9045 27.1327C11.662 27.1328 11.4361 27.2561 11.3048 27.46C11.1735 27.6639 11.1548 27.9205 11.2552 28.1413L13.6071 33.3139C13.8653 33.8829 14.2241 34.4006 14.6663 34.8421L18.83 39.0049H23.7925V37.8883ZM23.1927 42.0049H22.5927C22.2613 42.0049 21.9927 42.2735 21.9927 42.6049C21.9927 42.9363 22.2613 43.2049 22.5927 43.2049H23.1927C23.524 43.2049 23.7927 42.9363 23.7927 42.6049C23.7927 42.2735 23.524 42.0049 23.1927 42.0049ZM45.8244 28.6374L43.4725 33.81C43.1552 34.5103 42.7138 35.1473 42.1697 35.6904L38.4711 39.3888C38.6794 39.6096 38.7957 39.9014 38.7963 40.2048V45.0048C38.7963 45.6676 38.259 46.2048 37.5961 46.2048H30.9947C30.3318 46.2048 29.7944 45.6676 29.7944 45.0048V40.2048C29.7944 39.5421 30.3318 39.0048 30.9947 39.0048V37.8882C30.9759 36.4666 31.4396 35.0806 32.3102 33.9564C32.8203 33.2856 33.5156 32.7786 34.3104 32.4978C35.5744 31.9669 36.7368 31.2211 37.7461 30.2934C38.6824 29.5195 40.0141 29.4465 41.0294 30.1134L42.3245 27.0924C42.5933 26.4562 43.1844 26.0142 43.8708 25.9362C44.5573 25.8582 45.2325 26.1563 45.6373 26.716C46.0421 27.2757 46.1136 28.0101 45.8244 28.6374ZM30.9947 45.0048H37.5961V40.2048H30.9947V45.0048ZM32.1949 39.0048H37.1574L41.3187 34.8426C41.7609 34.4011 42.1197 33.8834 42.3779 33.3144L44.7298 28.1418C44.8302 27.9211 44.8115 27.6644 44.6802 27.4605C44.5489 27.2566 44.323 27.1333 44.0805 27.1332C43.7952 27.1331 43.5374 27.303 43.4251 27.5652L42.0826 30.696C41.7262 31.5312 41.2123 32.29 40.5691 32.931L37.8277 35.6724C37.5923 35.8998 37.218 35.8966 36.9865 35.6651C36.755 35.4337 36.7517 35.0595 36.9792 34.824L39.7205 32.0826C39.9979 31.8061 40.247 31.5026 40.4641 31.1766C39.8858 30.7329 39.0773 30.7486 38.5167 31.2144C37.3947 32.2439 36.0979 33.0648 34.6873 33.6384C34.1137 33.8481 33.6134 34.2197 33.247 34.7082C32.5476 35.6193 32.1768 36.7399 32.1949 37.8882V39.0048ZM33.3948 42.0049H32.7948C32.4635 42.0049 32.1948 42.2735 32.1948 42.6049C32.1948 42.9363 32.4635 43.2049 32.7948 43.2049H33.3948C33.7262 43.2049 33.9948 42.9363 33.9948 42.6049C33.9948 42.2735 33.7262 42.0049 33.3948 42.0049ZM23.9121 23.045C24.1109 22.7799 24.4871 22.7262 24.7522 22.925L26.645 24.3446L31.0944 17.672C31.2134 17.4936 31.4185 17.3923 31.6325 17.4062C31.8465 17.42 32.0368 17.547 32.1318 17.7392C32.2268 17.9314 32.212 18.1596 32.093 18.338L27.292 25.538C27.2005 25.6752 27.0566 25.7687 26.8941 25.7966C26.8606 25.8021 26.8266 25.8049 26.7927 25.805C26.6628 25.805 26.5365 25.7629 26.4326 25.685L24.0321 23.885C23.7669 23.6862 23.7132 23.3101 23.9121 23.045Z" fill="#26D66C"/>
</svg>
