<svg width="56" height="56" viewBox="0 0 56 56" fill="none" xmlns="http://www.w3.org/2000/svg">
<rect opacity="0.6" x="0.5" y="0.705078" width="55" height="55" rx="24" fill="#F1C1C9"/>
<path fill-rule="evenodd" clip-rule="evenodd" d="M27.3359 12.8717C27.3359 12.5036 27.6333 12.2051 28 12.2051C28.3667 12.2051 28.6641 12.5036 28.6641 12.8717V18.2051C28.6641 18.5732 28.3667 18.8717 28 18.8717C27.6333 18.8717 27.3359 18.5732 27.3359 18.2051V12.8717ZM20.9567 20.8577L17.2001 17.0863C16.9407 16.8261 16.5203 16.826 16.2609 17.0863C16.0016 17.3467 16.0016 17.7688 16.2609 18.0292L20.0175 21.8005C20.2769 22.0609 20.6973 22.0609 20.9567 21.8005C21.216 21.5402 21.216 21.1181 20.9567 20.8577ZM38.8002 17.0864C39.0597 16.8261 39.48 16.8261 39.7394 17.0864C39.9988 17.3467 39.9988 17.7688 39.7394 18.0292L35.9828 21.8006C35.7233 22.0608 35.3031 22.0609 35.0436 21.8006C34.7843 21.5402 34.7843 21.118 35.0436 20.8577L38.8002 17.0864ZM37.8317 38.8718H38.625C39.7234 38.8718 40.6171 39.769 40.6171 40.8718V43.5384C40.6171 43.9066 40.3198 44.2051 39.9531 44.2051H16.0469C15.6801 44.2051 15.3828 43.9066 15.3828 43.5384V40.8718C15.3828 39.769 16.2765 38.8718 17.375 38.8718H18.1683L20.3304 26.706C20.7324 24.4834 22.6557 22.8718 24.9041 22.8718H31.0958C33.3438 22.8718 35.2674 24.4834 35.6698 26.7037L37.8317 38.8718ZM24.9041 24.2051C23.2982 24.2051 21.9243 25.3562 21.6375 26.9422L19.5174 38.8718H36.4826L34.3627 26.9401C34.0757 25.3563 32.7016 24.2051 31.0958 24.2051H24.9041ZM16.7109 42.8718H39.289V40.8718C39.289 40.5042 38.9911 40.2051 38.625 40.2051H17.375C17.0088 40.2051 16.7109 40.5042 16.7109 40.8718V42.8718ZM31.9844 28.8717C31.9844 28.5037 32.2819 28.2051 32.6484 28.2051C33.015 28.2051 33.3125 28.5037 33.3125 28.8717C33.3125 29.2397 33.015 29.5384 32.6484 29.5384C32.2819 29.5384 31.9844 29.2397 31.9844 28.8717ZM34.7893 36.7526L33.8151 31.3693C33.7496 31.0069 33.4033 30.7663 33.0431 30.8325C32.6822 30.8983 32.4428 31.2453 32.5084 31.6075L33.4825 36.9909C33.5486 37.3559 33.8971 37.5933 34.2546 37.5277C34.6155 37.4619 34.8549 37.1148 34.7893 36.7526ZM38.625 28.2051H44.3359C44.7026 28.2051 45 28.5036 45 28.8717C45 29.2399 44.7026 29.5384 44.3359 29.5384H38.625C38.2583 29.5384 37.9609 29.2399 37.9609 28.8717C37.9609 28.5036 38.2583 28.2051 38.625 28.2051ZM17.375 28.2051H11.6641C11.2973 28.2051 11 28.5036 11 28.8717C11 29.2399 11.2973 29.5384 11.6641 29.5384H17.375C17.7417 29.5384 18.039 29.2399 18.039 28.8717C18.039 28.5036 17.7417 28.2051 17.375 28.2051Z" fill="#D62642"/>
</svg>
