<svg width="56" height="56" viewBox="0 0 56 56" fill="none" xmlns="http://www.w3.org/2000/svg">
<rect opacity="0.6" x="0.5" y="0.705078" width="55" height="55" rx="24" fill="#FAE3AF"/>
<path fill-rule="evenodd" clip-rule="evenodd" d="M44.2954 10.2051H36.1477C35.1851 10.2051 34.4017 10.9866 34.4017 11.947V16.5922C34.4017 17.5526 35.1851 18.3341 36.1477 18.3341H37.7022L37.1004 21.836L42.7165 18.3341H44.2954C45.258 18.3341 46.0414 17.5526 46.0414 16.5922V11.947C46.0414 10.9866 45.258 10.2051 44.2954 10.2051ZM44.8774 16.5922C44.8774 16.9121 44.6161 17.1728 44.2954 17.1728H42.3825L38.6863 19.4774L39.0826 17.1728H36.1477C35.827 17.1728 35.5657 16.9121 35.5657 16.5922V11.947C35.5657 11.6271 35.827 11.3664 36.1477 11.3664H44.2954C44.6161 11.3664 44.8774 11.6271 44.8774 11.947V16.5922ZM39.2824 41.56L37.9352 37.5268C37.4643 36.1188 36.2631 35.0794 34.7988 34.8135L30.9095 34.1074V33.8066C31.5863 33.4147 32.1753 32.8904 32.6443 32.2697H33.8194C34.782 32.2697 35.5653 31.4881 35.5653 30.5277V23.56C35.5653 19.3979 32.1712 16.0116 27.9995 16.0116C23.8279 16.0116 20.4338 19.3979 20.4338 23.56V27.6245C20.4338 28.744 21.2317 29.6806 22.2897 29.8989C22.6162 31.5677 23.6614 32.9798 25.0896 33.8066V34.1074L21.1996 34.8135C19.736 35.0794 18.5342 36.1188 18.0639 37.5268L17.8311 38.2242L15.8489 36.2465C15.6219 36.0201 15.6219 35.6513 15.8489 35.4249L18.1477 33.1319L13.8329 28.827L11.2349 31.419C10.4656 32.1866 10.0419 33.2074 10.0419 34.2932C10.0419 35.379 10.4656 36.3992 11.2349 37.1668L19.1004 45.0142C19.8698 45.7819 20.8929 46.2051 21.9813 46.2051C23.0696 46.2051 24.0921 45.7819 24.8434 45.0317L27.6783 42.4402L26.7943 41.56H39.2824ZM34.4014 30.5277C34.4014 30.8482 34.14 31.1084 33.8194 31.1084H33.3299C33.4987 30.7246 33.6267 30.3199 33.7094 29.8989C33.9585 29.8472 34.1878 29.7485 34.4014 29.6242V30.5277ZM33.8194 28.6244V26.6246C34.1656 26.8261 34.4014 27.1966 34.4014 27.6245C34.4014 28.0524 34.1656 28.4229 33.8194 28.6244ZM22.1797 28.6244C21.8334 28.4229 21.5977 28.0524 21.5977 27.6245C21.5977 27.1966 21.8334 26.8261 22.1797 26.6246V28.6244ZM22.1797 24.7213V25.3844C21.9725 25.4384 21.7781 25.5197 21.5977 25.6248V23.56C21.5977 20.0384 24.4698 17.1729 27.9995 17.1729C31.5293 17.1729 34.4014 20.0384 34.4014 23.56V25.6248C34.2209 25.5197 34.0266 25.4378 33.8194 25.3844V24.7213H33.2374C31.5165 24.7213 29.8985 24.0524 28.681 22.8382L27.9995 22.1583L27.318 22.8382C26.1005 24.0524 24.4826 24.7213 22.7617 24.7213H22.1797ZM23.3437 28.7858V25.8605C25.0914 25.7293 26.7209 25.0099 27.9995 23.7969C29.2782 25.0099 30.9077 25.7299 32.6554 25.8605V28.7858C32.6554 29.6324 32.4238 30.4244 32.0257 31.1084H27.9995V32.2697H31.0689C30.2483 32.9902 29.1757 33.431 27.9995 33.431C25.4324 33.431 23.3437 31.347 23.3437 28.7858ZM29.7455 34.3246V34.3519L27.9995 36.0938L26.2536 34.3519V34.3246C26.8053 34.4976 27.3914 34.5922 27.9995 34.5922C28.6077 34.5922 29.1938 34.4976 29.7455 34.3246ZM19.1674 37.8938C19.5032 36.8881 20.3616 36.1455 21.4074 35.955L25.4755 35.2176L27.9995 37.7359L30.523 35.2182L34.5905 35.9556C35.6363 36.146 36.4947 36.8881 36.8305 37.8944L37.668 40.3987H25.6303L23.3635 38.1371L20.8446 40.4103C20.6252 40.6304 20.2417 40.6304 20.0217 40.4103L18.7507 39.1422L19.1674 37.8938ZM13.8323 30.4691L16.5013 33.1319L15.8693 33.7625L13.2003 31.0997L13.8323 30.4691ZM24.0374 44.1944C23.488 44.7413 22.757 45.0439 21.9801 45.0439C21.2031 45.0439 20.4722 44.7413 19.9222 44.1932L12.0567 36.3464C11.5073 35.7982 11.2047 35.069 11.2047 34.2938C11.2047 33.518 11.5073 32.7888 12.0567 32.2406L12.3768 31.9213L15.0458 34.5841L15.0248 34.605C14.3445 35.2844 14.3445 36.3893 15.0248 37.0687L19.1982 41.2325C19.5282 41.5611 19.9664 41.7429 20.4332 41.7429C20.8999 41.7429 21.3382 41.5617 21.6466 41.2528L21.6903 41.2139L24.3715 43.889L24.0374 44.1944ZM25.2305 43.1028L22.5551 40.4335L23.3239 39.7402L25.9946 42.4048L25.2305 43.1028ZM36.7299 12.5277H43.7137V13.689H36.7299V12.5277ZM41.3857 14.8502H36.7299V16.0115H41.3857V14.8502ZM42.5492 14.8502H43.7132V16.0115H42.5492V14.8502ZM27.9996 11.947C20.3954 11.947 13.8452 17.1949 12.1423 24.5151L11.0395 22.6808L10.0414 23.2783L12.0871 26.6792L15.4957 24.6382L14.8969 23.6424L13.3197 24.5865C14.969 17.8899 21.0048 13.1083 27.9996 13.1083C29.5285 13.1083 31.037 13.3348 32.4832 13.7819L32.8278 12.6728C31.2698 12.1909 29.6455 11.947 27.9996 11.947ZM42.3495 21.0208L45.7582 23.0617L45.1594 24.0575L43.4489 23.0338C44.0082 24.6945 44.2951 26.4289 44.2951 28.2051C44.2951 31.9235 43.0043 35.5595 40.66 38.4418L39.7562 37.7102C41.9323 35.034 43.1311 31.6582 43.1311 28.2051C43.1311 26.5276 42.857 24.8908 42.321 23.3259L41.3026 25.0197L40.3045 24.4222L42.3495 21.0208Z" fill="#D69026"/>
</svg>
