<svg width="240" height="168" viewBox="0 0 240 168" fill="none" xmlns="http://www.w3.org/2000/svg">
<g opacity="0.4">
<path opacity="0.4" fill-rule="evenodd" clip-rule="evenodd" d="M4.18844 165.907C4.18844 164.751 3.25137 163.814 2.09544 163.814C0.939509 163.814 0.00244141 164.751 0.00244141 165.907C0.00244141 167.063 0.939509 168 2.09544 168C3.25137 168 4.18844 167.063 4.18844 165.907ZM22.3276 165.907C22.3276 164.751 21.3905 163.814 20.2346 163.814C19.0787 163.814 18.1416 164.751 18.1416 165.907C18.1416 167.063 19.0787 168 20.2346 168C21.3905 168 22.3276 167.063 22.3276 165.907ZM38.3742 163.814C39.5302 163.814 40.4673 164.751 40.4673 165.907C40.4673 167.063 39.5302 168 38.3742 168C37.2183 168 36.2812 167.063 36.2812 165.907C36.2812 164.751 37.2183 163.814 38.3742 163.814ZM58.6059 165.907C58.6059 164.751 57.6689 163.814 56.5129 163.814C55.357 163.814 54.4199 164.751 54.4199 165.907C54.4199 167.063 55.357 168 56.5129 168C57.6689 168 58.6059 167.063 58.6059 165.907ZM74.6531 163.814C75.809 163.814 76.7461 164.751 76.7461 165.907C76.7461 167.063 75.809 168 74.6531 168C73.4971 168 72.5601 167.063 72.5601 165.907C72.5601 164.751 73.4971 163.814 74.6531 163.814ZM94.8852 165.907C94.8852 164.751 93.9482 163.814 92.7922 163.814C91.6363 163.814 90.6992 164.751 90.6992 165.907C90.6992 167.063 91.6363 168 92.7922 168C93.9482 168 94.8852 167.063 94.8852 165.907ZM110.932 163.814C112.088 163.814 113.025 164.751 113.025 165.907C113.025 167.063 112.088 168 110.932 168C109.776 168 108.839 167.063 108.839 165.907C108.839 164.751 109.776 163.814 110.932 163.814ZM131.164 165.907C131.164 164.751 130.226 163.814 129.071 163.814C127.915 163.814 126.978 164.751 126.978 165.907C126.978 167.063 127.915 168 129.071 168C130.226 168 131.164 167.063 131.164 165.907ZM147.21 163.814C148.366 163.814 149.303 164.751 149.303 165.907C149.303 167.063 148.366 168 147.21 168C146.054 168 145.117 167.063 145.117 165.907C145.117 164.751 146.054 163.814 147.21 163.814ZM167.442 165.907C167.442 164.751 166.505 163.814 165.349 163.814C164.193 163.814 163.256 164.751 163.256 165.907C163.256 167.063 164.193 168 165.349 168C166.505 168 167.442 167.063 167.442 165.907ZM183.489 163.814C184.645 163.814 185.582 164.751 185.582 165.907C185.582 167.063 184.645 168 183.489 168C182.333 168 181.396 167.063 181.396 165.907C181.396 164.751 182.333 163.814 183.489 163.814ZM203.721 165.907C203.721 164.751 202.784 163.814 201.628 163.814C200.472 163.814 199.535 164.751 199.535 165.907C199.535 167.063 200.472 168 201.628 168C202.784 168 203.721 167.063 203.721 165.907ZM219.767 163.814C220.923 163.814 221.86 164.751 221.86 165.907C221.86 167.063 220.923 168 219.767 168C218.611 168 217.674 167.063 217.674 165.907C217.674 164.751 218.611 163.814 219.767 163.814ZM240 165.907C240 164.751 239.063 163.814 237.907 163.814C236.751 163.814 235.814 164.751 235.814 165.907C235.814 167.063 236.751 168 237.907 168C239.063 168 240 167.063 240 165.907ZM2.09544 145.675C3.25137 145.675 4.18844 146.612 4.18844 147.768C4.18844 148.924 3.25137 149.861 2.09544 149.861C0.939509 149.861 0.00244141 148.924 0.00244141 147.768C0.00244141 146.612 0.939509 145.675 2.09544 145.675ZM22.3276 147.768C22.3276 146.612 21.3905 145.675 20.2346 145.675C19.0787 145.675 18.1416 146.612 18.1416 147.768C18.1416 148.924 19.0787 149.861 20.2346 149.861C21.3905 149.861 22.3276 148.924 22.3276 147.768ZM38.3742 145.675C39.5302 145.675 40.4673 146.612 40.4673 147.768C40.4673 148.924 39.5302 149.861 38.3742 149.861C37.2183 149.861 36.2812 148.924 36.2812 147.768C36.2812 146.612 37.2183 145.675 38.3742 145.675ZM58.6059 147.768C58.6059 146.612 57.6689 145.675 56.5129 145.675C55.357 145.675 54.4199 146.612 54.4199 147.768C54.4199 148.924 55.357 149.861 56.5129 149.861C57.6689 149.861 58.6059 148.924 58.6059 147.768ZM74.6531 145.675C75.809 145.675 76.7461 146.612 76.7461 147.768C76.7461 148.924 75.809 149.861 74.6531 149.861C73.4971 149.861 72.5601 148.924 72.5601 147.768C72.5601 146.612 73.4971 145.675 74.6531 145.675ZM94.8852 147.768C94.8852 146.612 93.9482 145.675 92.7922 145.675C91.6363 145.675 90.6992 146.612 90.6992 147.768C90.6992 148.924 91.6363 149.861 92.7922 149.861C93.9482 149.861 94.8852 148.924 94.8852 147.768ZM110.932 145.675C112.088 145.675 113.025 146.612 113.025 147.768C113.025 148.924 112.088 149.861 110.932 149.861C109.776 149.861 108.839 148.924 108.839 147.768C108.839 146.612 109.776 145.675 110.932 145.675ZM131.164 147.768C131.164 146.612 130.226 145.675 129.071 145.675C127.915 145.675 126.978 146.612 126.978 147.768C126.978 148.924 127.915 149.861 129.071 149.861C130.226 149.861 131.164 148.924 131.164 147.768ZM147.21 145.675C148.366 145.675 149.303 146.612 149.303 147.768C149.303 148.924 148.366 149.861 147.21 149.861C146.054 149.861 145.117 148.924 145.117 147.768C145.117 146.612 146.054 145.675 147.21 145.675ZM167.442 147.768C167.442 146.612 166.505 145.675 165.349 145.675C164.193 145.675 163.256 146.612 163.256 147.768C163.256 148.924 164.193 149.861 165.349 149.861C166.505 149.861 167.442 148.924 167.442 147.768ZM183.489 145.675C184.645 145.675 185.582 146.612 185.582 147.768C185.582 148.924 184.645 149.861 183.489 149.861C182.333 149.861 181.396 148.924 181.396 147.768C181.396 146.612 182.333 145.675 183.489 145.675ZM203.721 147.768C203.721 146.612 202.784 145.675 201.628 145.675C200.472 145.675 199.535 146.612 199.535 147.768C199.535 148.924 200.472 149.861 201.628 149.861C202.784 149.861 203.721 148.924 203.721 147.768ZM219.767 145.675C220.923 145.675 221.86 146.612 221.86 147.768C221.86 148.924 220.923 149.861 219.767 149.861C218.611 149.861 217.674 148.924 217.674 147.768C217.674 146.612 218.611 145.675 219.767 145.675ZM240 147.768C240 146.612 239.063 145.675 237.907 145.675C236.751 145.675 235.814 146.612 235.814 147.768C235.814 148.924 236.751 149.861 237.907 149.861C239.063 149.861 240 148.924 240 147.768ZM2.09544 127.535C3.25137 127.535 4.18844 128.473 4.18844 129.628C4.18844 130.784 3.25137 131.721 2.09544 131.721C0.939509 131.721 0.00244141 130.784 0.00244141 129.628C0.00244141 128.473 0.939509 127.535 2.09544 127.535ZM22.3276 129.628C22.3276 128.473 21.3905 127.535 20.2346 127.535C19.0787 127.535 18.1416 128.473 18.1416 129.628C18.1416 130.784 19.0787 131.721 20.2346 131.721C21.3905 131.721 22.3276 130.784 22.3276 129.628ZM38.3742 127.535C39.5302 127.535 40.4673 128.473 40.4673 129.628C40.4673 130.784 39.5302 131.721 38.3742 131.721C37.2183 131.721 36.2812 130.784 36.2812 129.628C36.2812 128.473 37.2183 127.535 38.3742 127.535ZM58.6059 129.628C58.6059 128.473 57.6689 127.535 56.5129 127.535C55.357 127.535 54.4199 128.473 54.4199 129.628C54.4199 130.784 55.357 131.721 56.5129 131.721C57.6689 131.721 58.6059 130.784 58.6059 129.628ZM74.6531 127.535C75.809 127.535 76.7461 128.473 76.7461 129.628C76.7461 130.784 75.809 131.721 74.6531 131.721C73.4971 131.721 72.5601 130.784 72.5601 129.628C72.5601 128.473 73.4971 127.535 74.6531 127.535ZM94.8852 129.628C94.8852 128.473 93.9482 127.535 92.7922 127.535C91.6363 127.535 90.6992 128.473 90.6992 129.628C90.6992 130.784 91.6363 131.721 92.7922 131.721C93.9482 131.721 94.8852 130.784 94.8852 129.628ZM110.932 127.535C112.088 127.535 113.025 128.473 113.025 129.628C113.025 130.784 112.088 131.721 110.932 131.721C109.776 131.721 108.839 130.784 108.839 129.628C108.839 128.473 109.776 127.535 110.932 127.535ZM131.164 129.628C131.164 128.473 130.226 127.535 129.071 127.535C127.915 127.535 126.978 128.473 126.978 129.628C126.978 130.784 127.915 131.721 129.071 131.721C130.226 131.721 131.164 130.784 131.164 129.628ZM147.21 127.535C148.366 127.535 149.303 128.473 149.303 129.628C149.303 130.784 148.366 131.721 147.21 131.721C146.054 131.721 145.117 130.784 145.117 129.628C145.117 128.473 146.054 127.535 147.21 127.535ZM167.442 129.628C167.442 128.473 166.505 127.535 165.349 127.535C164.193 127.535 163.256 128.473 163.256 129.628C163.256 130.784 164.193 131.721 165.349 131.721C166.505 131.721 167.442 130.784 167.442 129.628ZM183.489 127.535C184.645 127.535 185.582 128.473 185.582 129.628C185.582 130.784 184.645 131.721 183.489 131.721C182.333 131.721 181.396 130.784 181.396 129.628C181.396 128.473 182.333 127.535 183.489 127.535ZM203.721 129.628C203.721 128.473 202.784 127.535 201.628 127.535C200.472 127.535 199.535 128.473 199.535 129.628C199.535 130.784 200.472 131.721 201.628 131.721C202.784 131.721 203.721 130.784 203.721 129.628ZM219.767 127.535C220.923 127.535 221.86 128.473 221.86 129.628C221.86 130.784 220.923 131.721 219.767 131.721C218.611 131.721 217.674 130.784 217.674 129.628C217.674 128.473 218.611 127.535 219.767 127.535ZM240 129.628C240 128.473 239.063 127.535 237.907 127.535C236.751 127.535 235.814 128.473 235.814 129.628C235.814 130.784 236.751 131.721 237.907 131.721C239.063 131.721 240 130.784 240 129.628ZM2.09544 109.396C3.25137 109.396 4.18844 110.333 4.18844 111.489C4.18844 112.645 3.25137 113.582 2.09544 113.582C0.939509 113.582 0.00244141 112.645 0.00244141 111.489C0.00244141 110.333 0.939509 109.396 2.09544 109.396ZM22.3276 111.489C22.3276 110.333 21.3905 109.396 20.2346 109.396C19.0787 109.396 18.1416 110.333 18.1416 111.489C18.1416 112.645 19.0787 113.582 20.2346 113.582C21.3905 113.582 22.3276 112.645 22.3276 111.489ZM38.3742 109.396C39.5302 109.396 40.4673 110.333 40.4673 111.489C40.4673 112.645 39.5302 113.582 38.3742 113.582C37.2183 113.582 36.2812 112.645 36.2812 111.489C36.2812 110.333 37.2183 109.396 38.3742 109.396ZM58.6059 111.489C58.6059 110.333 57.6689 109.396 56.5129 109.396C55.357 109.396 54.4199 110.333 54.4199 111.489C54.4199 112.645 55.357 113.582 56.5129 113.582C57.6689 113.582 58.6059 112.645 58.6059 111.489ZM74.6531 109.396C75.809 109.396 76.7461 110.333 76.7461 111.489C76.7461 112.645 75.809 113.582 74.6531 113.582C73.4971 113.582 72.5601 112.645 72.5601 111.489C72.5601 110.333 73.4971 109.396 74.6531 109.396ZM94.8852 111.489C94.8852 110.333 93.9482 109.396 92.7922 109.396C91.6363 109.396 90.6992 110.333 90.6992 111.489C90.6992 112.645 91.6363 113.582 92.7922 113.582C93.9482 113.582 94.8852 112.645 94.8852 111.489ZM110.932 109.396C112.088 109.396 113.025 110.333 113.025 111.489C113.025 112.645 112.088 113.582 110.932 113.582C109.776 113.582 108.839 112.645 108.839 111.489C108.839 110.333 109.776 109.396 110.932 109.396ZM131.164 111.489C131.164 110.333 130.226 109.396 129.071 109.396C127.915 109.396 126.978 110.333 126.978 111.489C126.978 112.645 127.915 113.582 129.071 113.582C130.226 113.582 131.164 112.645 131.164 111.489ZM147.21 109.396C148.366 109.396 149.303 110.333 149.303 111.489C149.303 112.645 148.366 113.582 147.21 113.582C146.054 113.582 145.117 112.645 145.117 111.489C145.117 110.333 146.054 109.396 147.21 109.396ZM167.442 111.489C167.442 110.333 166.505 109.396 165.349 109.396C164.193 109.396 163.256 110.333 163.256 111.489C163.256 112.645 164.193 113.582 165.349 113.582C166.505 113.582 167.442 112.645 167.442 111.489ZM183.489 109.396C184.645 109.396 185.582 110.333 185.582 111.489C185.582 112.645 184.645 113.582 183.489 113.582C182.333 113.582 181.396 112.645 181.396 111.489C181.396 110.333 182.333 109.396 183.489 109.396ZM203.721 111.489C203.721 110.333 202.784 109.396 201.628 109.396C200.472 109.396 199.535 110.333 199.535 111.489C199.535 112.645 200.472 113.582 201.628 113.582C202.784 113.582 203.721 112.645 203.721 111.489ZM219.767 109.396C220.923 109.396 221.86 110.333 221.86 111.489C221.86 112.645 220.923 113.582 219.767 113.582C218.611 113.582 217.674 112.645 217.674 111.489C217.674 110.333 218.611 109.396 219.767 109.396ZM240 111.489C240 110.333 239.063 109.396 237.907 109.396C236.751 109.396 235.814 110.333 235.814 111.489C235.814 112.645 236.751 113.582 237.907 113.582C239.063 113.582 240 112.645 240 111.489ZM2.09544 91.2566C3.25137 91.2566 4.18844 92.1937 4.18844 93.3496C4.18844 94.5056 3.25137 95.4426 2.09544 95.4426C0.939509 95.4426 0.00244141 94.5056 0.00244141 93.3496C0.00244141 92.1937 0.939509 91.2566 2.09544 91.2566ZM22.3276 93.3496C22.3276 92.1937 21.3905 91.2566 20.2346 91.2566C19.0787 91.2566 18.1416 92.1937 18.1416 93.3496C18.1416 94.5056 19.0787 95.4426 20.2346 95.4426C21.3905 95.4426 22.3276 94.5056 22.3276 93.3496ZM38.3742 91.2566C39.5302 91.2566 40.4673 92.1937 40.4673 93.3496C40.4673 94.5056 39.5302 95.4426 38.3742 95.4426C37.2183 95.4426 36.2813 94.5056 36.2813 93.3496C36.2813 92.1937 37.2183 91.2566 38.3742 91.2566ZM58.6059 93.3496C58.6059 92.1937 57.6689 91.2566 56.5129 91.2566C55.357 91.2566 54.4199 92.1937 54.4199 93.3496C54.4199 94.5056 55.357 95.4426 56.5129 95.4426C57.6689 95.4426 58.6059 94.5056 58.6059 93.3496ZM74.6531 91.2566C75.809 91.2566 76.7461 92.1937 76.7461 93.3496C76.7461 94.5056 75.809 95.4426 74.6531 95.4426C73.4971 95.4426 72.5601 94.5056 72.5601 93.3496C72.5601 92.1937 73.4971 91.2566 74.6531 91.2566ZM94.8852 93.3496C94.8852 92.1937 93.9482 91.2566 92.7922 91.2566C91.6363 91.2566 90.6992 92.1937 90.6992 93.3496C90.6992 94.5056 91.6363 95.4426 92.7922 95.4426C93.9482 95.4426 94.8852 94.5056 94.8852 93.3496ZM110.932 91.2566C112.088 91.2566 113.025 92.1937 113.025 93.3496C113.025 94.5056 112.088 95.4426 110.932 95.4426C109.776 95.4426 108.839 94.5056 108.839 93.3496C108.839 92.1937 109.776 91.2566 110.932 91.2566ZM131.164 93.3496C131.164 92.1937 130.226 91.2566 129.071 91.2566C127.915 91.2566 126.978 92.1937 126.978 93.3496C126.978 94.5056 127.915 95.4426 129.071 95.4426C130.226 95.4426 131.164 94.5056 131.164 93.3496ZM147.21 91.2566C148.366 91.2566 149.303 92.1937 149.303 93.3496C149.303 94.5056 148.366 95.4426 147.21 95.4426C146.054 95.4426 145.117 94.5056 145.117 93.3496C145.117 92.1937 146.054 91.2566 147.21 91.2566ZM167.442 93.3496C167.442 92.1937 166.505 91.2566 165.349 91.2566C164.193 91.2566 163.256 92.1937 163.256 93.3496C163.256 94.5056 164.193 95.4426 165.349 95.4426C166.505 95.4426 167.442 94.5056 167.442 93.3496ZM183.489 91.2566C184.645 91.2566 185.582 92.1937 185.582 93.3496C185.582 94.5056 184.645 95.4426 183.489 95.4426C182.333 95.4426 181.396 94.5056 181.396 93.3496C181.396 92.1937 182.333 91.2566 183.489 91.2566ZM203.721 93.3496C203.721 92.1937 202.784 91.2566 201.628 91.2566C200.472 91.2566 199.535 92.1937 199.535 93.3496C199.535 94.5056 200.472 95.4426 201.628 95.4426C202.784 95.4426 203.721 94.5056 203.721 93.3496ZM219.767 91.2566C220.923 91.2566 221.86 92.1937 221.86 93.3496C221.86 94.5056 220.923 95.4426 219.767 95.4426C218.611 95.4426 217.674 94.5056 217.674 93.3496C217.674 92.1937 218.611 91.2566 219.767 91.2566ZM240 93.3496C240 92.1937 239.063 91.2566 237.907 91.2566C236.751 91.2566 235.814 92.1937 235.814 93.3496C235.814 94.5056 236.751 95.4426 237.907 95.4426C239.063 95.4426 240 94.5056 240 93.3496ZM2.09544 73.1175C3.25137 73.1175 4.18844 74.0545 4.18844 75.2105C4.18844 76.3664 3.25137 77.3035 2.09544 77.3035C0.939509 77.3035 0.00244141 76.3664 0.00244141 75.2105C0.00244141 74.0545 0.939509 73.1175 2.09544 73.1175ZM22.3276 75.2105C22.3276 74.0545 21.3905 73.1175 20.2346 73.1175C19.0787 73.1175 18.1416 74.0545 18.1416 75.2105C18.1416 76.3664 19.0787 77.3035 20.2346 77.3035C21.3905 77.3035 22.3276 76.3664 22.3276 75.2105ZM38.3742 73.1175C39.5302 73.1175 40.4673 74.0545 40.4673 75.2105C40.4673 76.3664 39.5302 77.3035 38.3742 77.3035C37.2183 77.3035 36.2813 76.3664 36.2813 75.2105C36.2813 74.0545 37.2183 73.1175 38.3742 73.1175ZM58.6059 75.2105C58.6059 74.0545 57.6689 73.1175 56.5129 73.1175C55.357 73.1175 54.4199 74.0545 54.4199 75.2105C54.4199 76.3664 55.357 77.3035 56.5129 77.3035C57.6689 77.3035 58.6059 76.3664 58.6059 75.2105ZM74.6531 73.1175C75.809 73.1175 76.7461 74.0545 76.7461 75.2105C76.7461 76.3664 75.809 77.3035 74.6531 77.3035C73.4971 77.3035 72.5601 76.3664 72.5601 75.2105C72.5601 74.0545 73.4971 73.1175 74.6531 73.1175ZM94.8852 75.2105C94.8852 74.0545 93.9482 73.1175 92.7922 73.1175C91.6363 73.1175 90.6992 74.0545 90.6992 75.2105C90.6992 76.3664 91.6363 77.3035 92.7922 77.3035C93.9482 77.3035 94.8852 76.3664 94.8852 75.2105ZM110.932 73.1175C112.088 73.1175 113.025 74.0545 113.025 75.2105C113.025 76.3664 112.088 77.3035 110.932 77.3035C109.776 77.3035 108.839 76.3664 108.839 75.2105C108.839 74.0545 109.776 73.1175 110.932 73.1175ZM131.164 75.2105C131.164 74.0545 130.226 73.1175 129.071 73.1175C127.915 73.1175 126.978 74.0545 126.978 75.2105C126.978 76.3664 127.915 77.3035 129.071 77.3035C130.226 77.3035 131.164 76.3664 131.164 75.2105ZM147.21 73.1175C148.366 73.1175 149.303 74.0545 149.303 75.2105C149.303 76.3664 148.366 77.3035 147.21 77.3035C146.054 77.3035 145.117 76.3664 145.117 75.2105C145.117 74.0545 146.054 73.1175 147.21 73.1175ZM167.442 75.2105C167.442 74.0545 166.505 73.1175 165.349 73.1175C164.193 73.1175 163.256 74.0545 163.256 75.2105C163.256 76.3664 164.193 77.3035 165.349 77.3035C166.505 77.3035 167.442 76.3664 167.442 75.2105ZM183.489 73.1175C184.645 73.1175 185.582 74.0545 185.582 75.2105C185.582 76.3664 184.645 77.3035 183.489 77.3035C182.333 77.3035 181.396 76.3664 181.396 75.2105C181.396 74.0545 182.333 73.1175 183.489 73.1175ZM203.721 75.2105C203.721 74.0545 202.784 73.1175 201.628 73.1175C200.472 73.1175 199.535 74.0545 199.535 75.2105C199.535 76.3664 200.472 77.3035 201.628 77.3035C202.784 77.3035 203.721 76.3664 203.721 75.2105ZM219.767 73.1175C220.923 73.1175 221.86 74.0545 221.86 75.2105C221.86 76.3664 220.923 77.3035 219.767 77.3035C218.611 77.3035 217.674 76.3664 217.674 75.2105C217.674 74.0545 218.611 73.1175 219.767 73.1175ZM240 75.2105C240 74.0545 239.063 73.1175 237.907 73.1175C236.751 73.1175 235.814 74.0545 235.814 75.2105C235.814 76.3664 236.751 77.3035 237.907 77.3035C239.063 77.3035 240 76.3664 240 75.2105ZM2.09544 54.9781C3.25137 54.9781 4.18844 55.9151 4.18844 57.0711C4.18844 58.227 3.25137 59.1641 2.09544 59.1641C0.939509 59.1641 0.00244141 58.227 0.00244141 57.0711C0.00244141 55.9151 0.939509 54.9781 2.09544 54.9781ZM22.3276 57.0711C22.3276 55.9151 21.3905 54.9781 20.2346 54.9781C19.0787 54.9781 18.1416 55.9151 18.1416 57.0711C18.1416 58.227 19.0787 59.1641 20.2346 59.1641C21.3905 59.1641 22.3276 58.227 22.3276 57.0711ZM38.3742 54.9781C39.5302 54.9781 40.4673 55.9151 40.4673 57.0711C40.4673 58.227 39.5302 59.1641 38.3742 59.1641C37.2183 59.1641 36.2813 58.227 36.2813 57.0711C36.2813 55.9151 37.2183 54.9781 38.3742 54.9781ZM58.6059 57.0711C58.6059 55.9151 57.6689 54.9781 56.5129 54.9781C55.357 54.9781 54.4199 55.9151 54.4199 57.0711C54.4199 58.227 55.357 59.1641 56.5129 59.1641C57.6689 59.1641 58.6059 58.227 58.6059 57.0711ZM74.6531 54.9781C75.809 54.9781 76.7461 55.9151 76.7461 57.0711C76.7461 58.227 75.809 59.1641 74.6531 59.1641C73.4971 59.1641 72.5601 58.227 72.5601 57.0711C72.5601 55.9151 73.4971 54.9781 74.6531 54.9781ZM94.8852 57.0711C94.8852 55.9151 93.9482 54.9781 92.7922 54.9781C91.6363 54.9781 90.6992 55.9151 90.6992 57.0711C90.6992 58.227 91.6363 59.1641 92.7922 59.1641C93.9482 59.1641 94.8852 58.227 94.8852 57.0711ZM110.932 54.9781C112.088 54.9781 113.025 55.9151 113.025 57.0711C113.025 58.227 112.088 59.1641 110.932 59.1641C109.776 59.1641 108.839 58.227 108.839 57.0711C108.839 55.9151 109.776 54.9781 110.932 54.9781ZM131.164 57.0711C131.164 55.9151 130.226 54.9781 129.071 54.9781C127.915 54.9781 126.978 55.9151 126.978 57.0711C126.978 58.227 127.915 59.1641 129.071 59.1641C130.226 59.1641 131.164 58.227 131.164 57.0711ZM147.21 54.9781C148.366 54.9781 149.303 55.9151 149.303 57.0711C149.303 58.227 148.366 59.1641 147.21 59.1641C146.054 59.1641 145.117 58.227 145.117 57.0711C145.117 55.9151 146.054 54.9781 147.21 54.9781ZM167.442 57.0711C167.442 55.9151 166.505 54.9781 165.349 54.9781C164.193 54.9781 163.256 55.9151 163.256 57.0711C163.256 58.227 164.193 59.1641 165.349 59.1641C166.505 59.1641 167.442 58.227 167.442 57.0711ZM183.489 54.9781C184.645 54.9781 185.582 55.9151 185.582 57.0711C185.582 58.227 184.645 59.1641 183.489 59.1641C182.333 59.1641 181.396 58.227 181.396 57.0711C181.396 55.9151 182.333 54.9781 183.489 54.9781ZM203.721 57.0711C203.721 55.9151 202.784 54.9781 201.628 54.9781C200.472 54.9781 199.535 55.9151 199.535 57.0711C199.535 58.227 200.472 59.1641 201.628 59.1641C202.784 59.1641 203.721 58.227 203.721 57.0711ZM219.767 54.9781C220.923 54.9781 221.86 55.9151 221.86 57.0711C221.86 58.227 220.923 59.1641 219.767 59.1641C218.611 59.1641 217.674 58.227 217.674 57.0711C217.674 55.9151 218.611 54.9781 219.767 54.9781ZM240 57.0711C240 55.9151 239.063 54.9781 237.907 54.9781C236.751 54.9781 235.814 55.9151 235.814 57.0711C235.814 58.227 236.751 59.1641 237.907 59.1641C239.063 59.1641 240 58.227 240 57.0711ZM2.09544 36.8389C3.25137 36.8389 4.18844 37.776 4.18844 38.9319C4.18844 40.0878 3.25137 41.0249 2.09544 41.0249C0.939509 41.0249 0.00244141 40.0878 0.00244141 38.9319C0.00244141 37.776 0.939509 36.8389 2.09544 36.8389ZM22.3276 38.9319C22.3276 37.776 21.3905 36.8389 20.2346 36.8389C19.0787 36.8389 18.1416 37.776 18.1416 38.9319C18.1416 40.0878 19.0787 41.0249 20.2346 41.0249C21.3905 41.0249 22.3276 40.0878 22.3276 38.9319ZM38.3742 36.8389C39.5302 36.8389 40.4673 37.776 40.4673 38.9319C40.4673 40.0878 39.5302 41.0249 38.3742 41.0249C37.2183 41.0249 36.2813 40.0878 36.2813 38.9319C36.2813 37.776 37.2183 36.8389 38.3742 36.8389ZM58.6059 38.9319C58.6059 37.776 57.6689 36.8389 56.5129 36.8389C55.357 36.8389 54.4199 37.776 54.4199 38.9319C54.4199 40.0878 55.357 41.0249 56.5129 41.0249C57.6689 41.0249 58.6059 40.0878 58.6059 38.9319ZM74.6531 36.8389C75.809 36.8389 76.7461 37.776 76.7461 38.9319C76.7461 40.0878 75.809 41.0249 74.6531 41.0249C73.4971 41.0249 72.5601 40.0878 72.5601 38.9319C72.5601 37.776 73.4971 36.8389 74.6531 36.8389ZM94.8852 38.9319C94.8852 37.776 93.9482 36.8389 92.7922 36.8389C91.6363 36.8389 90.6992 37.776 90.6992 38.9319C90.6992 40.0878 91.6363 41.0249 92.7922 41.0249C93.9482 41.0249 94.8852 40.0878 94.8852 38.9319ZM110.932 36.8389C112.088 36.8389 113.025 37.776 113.025 38.9319C113.025 40.0878 112.088 41.0249 110.932 41.0249C109.776 41.0249 108.839 40.0878 108.839 38.9319C108.839 37.776 109.776 36.8389 110.932 36.8389ZM131.164 38.9319C131.164 37.776 130.226 36.8389 129.071 36.8389C127.915 36.8389 126.978 37.776 126.978 38.9319C126.978 40.0878 127.915 41.0249 129.071 41.0249C130.226 41.0249 131.164 40.0878 131.164 38.9319ZM147.21 36.8389C148.366 36.8389 149.303 37.776 149.303 38.9319C149.303 40.0878 148.366 41.0249 147.21 41.0249C146.054 41.0249 145.117 40.0878 145.117 38.9319C145.117 37.776 146.054 36.8389 147.21 36.8389ZM167.442 38.9319C167.442 37.776 166.505 36.8389 165.349 36.8389C164.193 36.8389 163.256 37.776 163.256 38.9319C163.256 40.0878 164.193 41.0249 165.349 41.0249C166.505 41.0249 167.442 40.0878 167.442 38.9319ZM183.489 36.8389C184.645 36.8389 185.582 37.776 185.582 38.9319C185.582 40.0878 184.645 41.0249 183.489 41.0249C182.333 41.0249 181.396 40.0878 181.396 38.9319C181.396 37.776 182.333 36.8389 183.489 36.8389ZM203.721 38.9319C203.721 37.776 202.784 36.8389 201.628 36.8389C200.472 36.8389 199.535 37.776 199.535 38.9319C199.535 40.0878 200.472 41.0249 201.628 41.0249C202.784 41.0249 203.721 40.0878 203.721 38.9319ZM219.767 36.8389C220.923 36.8389 221.86 37.776 221.86 38.9319C221.86 40.0878 220.923 41.0249 219.767 41.0249C218.611 41.0249 217.674 40.0878 217.674 38.9319C217.674 37.776 218.611 36.8389 219.767 36.8389ZM240 38.9319C240 37.776 239.063 36.8389 237.907 36.8389C236.751 36.8389 235.814 37.776 235.814 38.9319C235.814 40.0878 236.751 41.0249 237.907 41.0249C239.063 41.0249 240 40.0878 240 38.9319ZM2.09544 18.6992C3.25137 18.6992 4.18844 19.6363 4.18844 20.7923C4.18844 21.9482 3.25137 22.8853 2.09544 22.8853C0.939509 22.8853 0.00244141 21.9482 0.00244141 20.7923C0.00244141 19.6363 0.939509 18.6992 2.09544 18.6992ZM22.3276 20.7923C22.3276 19.6363 21.3905 18.6992 20.2346 18.6992C19.0787 18.6992 18.1416 19.6363 18.1416 20.7923C18.1416 21.9482 19.0787 22.8853 20.2346 22.8853C21.3905 22.8853 22.3276 21.9482 22.3276 20.7923ZM38.3742 18.6992C39.5302 18.6992 40.4673 19.6363 40.4673 20.7923C40.4673 21.9482 39.5302 22.8853 38.3742 22.8853C37.2183 22.8853 36.2813 21.9482 36.2813 20.7923C36.2813 19.6363 37.2183 18.6992 38.3742 18.6992ZM58.6059 20.7923C58.6059 19.6363 57.6689 18.6992 56.5129 18.6992C55.357 18.6992 54.4199 19.6363 54.4199 20.7923C54.4199 21.9482 55.357 22.8853 56.5129 22.8853C57.6689 22.8853 58.6059 21.9482 58.6059 20.7923ZM74.6531 18.6992C75.809 18.6992 76.7461 19.6363 76.7461 20.7923C76.7461 21.9482 75.809 22.8853 74.6531 22.8853C73.4971 22.8853 72.5601 21.9482 72.5601 20.7923C72.5601 19.6363 73.4971 18.6992 74.6531 18.6992ZM94.8852 20.7923C94.8852 19.6363 93.9482 18.6992 92.7922 18.6992C91.6363 18.6992 90.6992 19.6363 90.6992 20.7923C90.6992 21.9482 91.6363 22.8853 92.7922 22.8853C93.9482 22.8853 94.8852 21.9482 94.8852 20.7923ZM110.932 18.6992C112.088 18.6992 113.025 19.6363 113.025 20.7923C113.025 21.9482 112.088 22.8853 110.932 22.8853C109.776 22.8853 108.839 21.9482 108.839 20.7923C108.839 19.6363 109.776 18.6992 110.932 18.6992ZM131.164 20.7923C131.164 19.6363 130.226 18.6992 129.071 18.6992C127.915 18.6992 126.978 19.6363 126.978 20.7923C126.978 21.9482 127.915 22.8853 129.071 22.8853C130.226 22.8853 131.164 21.9482 131.164 20.7923ZM147.21 18.6992C148.366 18.6992 149.303 19.6363 149.303 20.7923C149.303 21.9482 148.366 22.8853 147.21 22.8853C146.054 22.8853 145.117 21.9482 145.117 20.7923C145.117 19.6363 146.054 18.6992 147.21 18.6992ZM167.442 20.7923C167.442 19.6363 166.505 18.6992 165.349 18.6992C164.193 18.6992 163.256 19.6363 163.256 20.7923C163.256 21.9482 164.193 22.8853 165.349 22.8853C166.505 22.8853 167.442 21.9482 167.442 20.7923ZM183.489 18.6992C184.645 18.6992 185.582 19.6363 185.582 20.7923C185.582 21.9482 184.645 22.8853 183.489 22.8853C182.333 22.8853 181.396 21.9482 181.396 20.7923C181.396 19.6363 182.333 18.6992 183.489 18.6992ZM203.721 20.7923C203.721 19.6363 202.784 18.6992 201.628 18.6992C200.472 18.6992 199.535 19.6363 199.535 20.7923C199.535 21.9482 200.472 22.8853 201.628 22.8853C202.784 22.8853 203.721 21.9482 203.721 20.7923ZM219.767 18.6992C220.923 18.6992 221.86 19.6363 221.86 20.7923C221.86 21.9482 220.923 22.8853 219.767 22.8853C218.611 22.8853 217.674 21.9482 217.674 20.7923C217.674 19.6363 218.611 18.6992 219.767 18.6992ZM240 20.7923C240 19.6363 239.063 18.6992 237.907 18.6992C236.751 18.6992 235.814 19.6363 235.814 20.7923C235.814 21.9482 236.751 22.8853 237.907 22.8853C239.063 22.8853 240 21.9482 240 20.7923ZM2.09544 0.560089C3.25137 0.560089 4.18844 1.49716 4.18844 2.65309C4.18844 3.80902 3.25137 4.74609 2.09544 4.74609C0.939509 4.74609 0.00244141 3.80902 0.00244141 2.65309C0.00244141 1.49716 0.939509 0.560089 2.09544 0.560089ZM22.3276 2.65309C22.3276 1.49716 21.3905 0.560089 20.2346 0.560089C19.0787 0.560089 18.1416 1.49716 18.1416 2.65309C18.1416 3.80902 19.0787 4.74609 20.2346 4.74609C21.3905 4.74609 22.3276 3.80902 22.3276 2.65309ZM38.3742 0.560089C39.5302 0.560089 40.4673 1.49716 40.4673 2.65309C40.4673 3.80902 39.5302 4.74609 38.3742 4.74609C37.2183 4.74609 36.2813 3.80902 36.2813 2.65309C36.2813 1.49716 37.2183 0.560089 38.3742 0.560089ZM58.6059 2.65309C58.6059 1.49716 57.6689 0.560089 56.5129 0.560089C55.357 0.560089 54.4199 1.49716 54.4199 2.65309C54.4199 3.80902 55.357 4.74609 56.5129 4.74609C57.6689 4.74609 58.6059 3.80902 58.6059 2.65309ZM74.6531 0.560089C75.809 0.560089 76.7461 1.49716 76.7461 2.65309C76.7461 3.80902 75.809 4.74609 74.6531 4.74609C73.4971 4.74609 72.5601 3.80902 72.5601 2.65309C72.5601 1.49716 73.4971 0.560089 74.6531 0.560089ZM94.8852 2.65309C94.8852 1.49716 93.9482 0.560089 92.7922 0.560089C91.6363 0.560089 90.6992 1.49716 90.6992 2.65309C90.6992 3.80902 91.6363 4.74609 92.7922 4.74609C93.9482 4.74609 94.8852 3.80902 94.8852 2.65309ZM110.932 0.560089C112.088 0.560089 113.025 1.49716 113.025 2.65309C113.025 3.80902 112.088 4.74609 110.932 4.74609C109.776 4.74609 108.839 3.80902 108.839 2.65309C108.839 1.49716 109.776 0.560089 110.932 0.560089ZM131.164 2.65309C131.164 1.49716 130.226 0.560089 129.071 0.560089C127.915 0.560089 126.978 1.49716 126.978 2.65309C126.978 3.80902 127.915 4.74609 129.071 4.74609C130.226 4.74609 131.164 3.80902 131.164 2.65309ZM147.21 0.560089C148.366 0.560089 149.303 1.49716 149.303 2.65309C149.303 3.80902 148.366 4.74609 147.21 4.74609C146.054 4.74609 145.117 3.80902 145.117 2.65309C145.117 1.49716 146.054 0.560089 147.21 0.560089ZM167.442 2.65309C167.442 1.49716 166.505 0.560089 165.349 0.560089C164.193 0.560089 163.256 1.49716 163.256 2.65309C163.256 3.80902 164.193 4.74609 165.349 4.74609C166.505 4.74609 167.442 3.80902 167.442 2.65309ZM183.489 0.560089C184.645 0.560089 185.582 1.49716 185.582 2.65309C185.582 3.80902 184.645 4.74609 183.489 4.74609C182.333 4.74609 181.396 3.80902 181.396 2.65309C181.396 1.49716 182.333 0.560089 183.489 0.560089ZM203.721 2.65309C203.721 1.49716 202.784 0.560089 201.628 0.560089C200.472 0.560089 199.535 1.49716 199.535 2.65309C199.535 3.80902 200.472 4.74609 201.628 4.74609C202.784 4.74609 203.721 3.80902 203.721 2.65309ZM219.767 0.560089C220.923 0.560089 221.86 1.49716 221.86 2.65309C221.86 3.80902 220.923 4.74609 219.767 4.74609C218.611 4.74609 217.674 3.80902 217.674 2.65309C217.674 1.49716 218.611 0.560089 219.767 0.560089ZM240 2.65309C240 1.49716 239.063 0.560089 237.907 0.560089C236.751 0.560089 235.814 1.49716 235.814 2.65309C235.814 3.80902 236.751 4.74609 237.907 4.74609C239.063 4.74609 240 3.80902 240 2.65309Z" fill="white"/>
</g>
</svg>
